<?xml version="1.0" encoding="utf-8"?>
<!-- Generator: Adobe Illustrator 19.0.0, SVG Export Plug-In . SVG Version: 6.00 Build 0)  -->
<svg version="1.1" id="Layer_1" xmlns="http://www.w3.org/2000/svg" xmlns:xlink="http://www.w3.org/1999/xlink" x="0px" y="0px"
	 viewBox="0 0 266.1 300" style="enable-background:new 0 0 266.1 300;" xml:space="preserve">
<style type="text/css">
	.st0{fill-rule:evenodd;clip-rule:evenodd;fill:#423F3F;}
	.st1{fill-rule:evenodd;clip-rule:evenodd;fill:#FFFFFF;}
	.st2{fill:#FFFFFF;}
</style>
<g id="XMLID_1_">
	<path id="XMLID_161_" class="st0" d="M1.6,181.7v-80c0,0-1.4-28.5,31.9-29.1l186.3-0.1c0,0,43.1,3.8,44.1-43.3l0,160.7
		c0,0,1.3,38.5-43.8,37.6H44.1c0,0-40.9-1.9-42.5,43.3"/>
	<g id="XMLID_176_">
		<path id="XMLID_159_" class="st1" d="M230,107.6c0.1,0,2.2-1.2,2.2-1.2c0,5-0.2,9.2-0.3,14c0,3.2-0.1,6.4-0.2,9.7
			c-0.1,3.2-0.2,6.1-0.2,9.3c0,0-0.5,0.5-1.2,0.9c-0.2,0.1-1.3,0.8-1.4,1c-0.3,0.2-1.8,1.2-1.8,1.4c-0.1-5.4,0.1-11.2,0.2-16.6
			c0-1.7,0.1-3.3,0-5c0-2.7,0-5.3,0.1-8c0,0.1-0.3,0.4-0.3,0.5c-1.2,1.8-1.1,1.6-2.2,3.4c-0.5,0.8-2,2.9-2.8,4.1
			c-0.4,0.6-1.4,2-1.4,2s-2.1,1.5-3.6,2.3c0.1-0.2-0.3-0.3-0.5-0.7c-0.7-0.7-1-1.1-1.7-2c-2-2.5-3.8-4.4-6.4-7.6
			c0,6.4-0.2,13.6-0.3,21.1c0,1-0.1,3.5-0.1,3.5s-1.3,1.1-1.8,1.5c-0.4,0.3-1.9,1.3-2.3,1.8c-0.1-1.9,0-3.9,0.1-6
			c0.2-5.8,0.1-11.8,0.1-18.2c0-2.7,0-4.8,0.1-7.2c0-0.4,0-0.9,0-1.6c1.6-1.4,4.9-3.5,4.9-3.5s0.7,0.8,1.4,1.9
			c1.1,1.8,2.4,3.4,3.7,5.1c1.8,2.2,3.5,4.4,5.4,6.6c2.4-3.6,4.1-6.1,6.3-10C227.8,108.9,228.2,108.7,230,107.6z"/>
		<path id="XMLID_157_" class="st1" d="M144.4,106.5c-0.1,6.2-0.3,12.8-0.2,19.1c4.2,0.4,10.5-0.1,15.4,0.1
			c0.3-5.1,0.1-11.2,0.4-15.9c1.8-1.2,1.5-1.1,3.2-2.1c0.9-0.5,1.4-0.9,1.8-1.2c0,1.3,0,3.1-0.1,4.2c-0.1,2,0,2.9-0.1,4.7
			c-0.1,3.8-0.1,7.3-0.2,10.9c-0.1,2.1-0.1,4.4-0.2,6.5c0,0.9,0.1,4.2,0,7.2c-1.2,0.6-0.6,0.4-2.2,1.1c-1.1,0.5-3,1.5-3,1.6
			c0-4.9,0.5-9,0.2-13.1c-5.2-0.3-10.2,0.3-15.2,0.5c-0.2,0-0.1,5.5-0.1,6c-0.1,1.7,0.1,4.2,0.1,4.2s-3.7,2-4.8,2.7
			c-0.2-1.1,0-2.2,0-2.9c0-9,0.2-19.9,0.2-30.1C141,108.7,142.7,107.6,144.4,106.5z"/>
		<path id="XMLID_156_" class="st1" d="M196.7,106.9c0,0-1,1.1-1.8,2c-1.1,1-2.5,2.1-2.5,2.1s-3.4,0-4.5,0c-2.9,0-5,0-8.8,0
			c-0.2,4.1-0.3,9.7-0.2,14.3c5.8,0,11.9-0.3,17.3,0.1c-0.7,0.6-1,1.1-1.7,1.8c-1.2,1.1-2.3,2.1-2.3,2.1s-3.1,0.1-4.1,0.1
			c-2.7,0.1-5.9,0-9.4,0.4c-0.4,2.9-0.4,4.8-0.5,7.7c3.7,0.2,7.5,0.1,11.6,0.1c2.3,0,4.6-0.2,7.3-0.2c-0.6,0.8-1.5,1.7-2.3,2.4
			c-1.2,1-2.4,2-2.4,2s-3.7-0.1-5.6,0c-3.5,0.1-6.7,0.2-10.6,0.3c-0.8,0-2.5,0-2.5,0s0-3.2,0-4.3c0-4.1-0.1-8.2,0-12.5
			c0-2.9,0-5.6,0-7.6c0-2.6,0.1-4.8,0.2-7.6c0-0.2,2.3-1.6,2.6-1.8c0.7-0.5,2.1-1.3,2.1-1.3s2.4-0.1,3.5-0.2c1.2,0,2.3,0,3.5,0
			c2.5,0,4.9-0.1,7.4,0C193.2,106.8,196.7,106.9,196.7,106.9z"/>
		<path id="XMLID_154_" class="st1" d="M135.3,106.9c-1.4,1.5-3.4,3.1-5.1,4.5c-1.4,0-2.1,0-3.6,0c-1.6,0-3.1,0-5.3,0.1
			c0,8.9-0.4,28.1-0.4,28.1s-1.6,1-1.9,1.3c-0.3,0.2-3.6,1.9-3.5,2c-0.1-2.9,0.3-6.3,0.4-9.7c0.1-4.7,0.1-8.1,0.3-12.5
			c0.1-2.3,0.1-4.9,0.1-7c0-0.7,0-1.5,0-2.2c-3.3,0-5.2,0.1-8.2,0.1c-1.8,0-2.4-0.1-5.1,0.1c0.7-1,1.2-1.5,1.6-1.9
			c0.5-0.5,0.9-1.1,1.4-1.6c0.3-0.3,1.2-1.2,1.2-1.2s13.3-0.2,19.1-0.1C129.1,106.9,132.3,106.8,135.3,106.9z"/>
		<path id="XMLID_152_" class="st1" d="M139.1,157.1c0.1,0,0.1,0.1,0.1,0.2c-1.4,3.3-3.7,5.5-5.8,8c-2.5,2.9-4.5,5.6-6.8,8
			c2.2,2.9,4,5.1,6.2,7.9c2.2,2.8,4.6,5.4,6.6,8.5c-1.3,1.2-2.7,2.2-4.1,3.1c-2.2-2.7-4.5-5.3-6.7-8c-2.2-2.7-4-5.7-6.5-8.2
			c-0.5,0.6-0.3,1-0.3,1.5c-0.1,2.9-0.1,4.4-0.1,7.1c0,1.4,0,1.7,0,2.5c0,1.2,0,1-0.1,2.1c-1.1,1.2-3.4,2.9-4.8,3.8
			c0.1-11.5,0.6-21.6,0-33.4c1.5-1.2,3.1-2.1,4.6-3c0.4,1.6,0.3,3.6,0.3,5.3c0.1,3.4,0.1,6.5,0.2,11.2c1.3-0.9,2.3-2.1,3.3-3.3
			c3.1-3.5,6.5-7.2,9.2-11.2C136.1,158.4,137.5,158.2,139.1,157.1z"/>
		<path id="XMLID_150_" class="st1" d="M165.7,164.9c-1.4,1-2.7,1.3-4.4,2.1c0.3-0.1-0.9-2.9-1-3.2c-0.5-1-1.3-1.8-2.3-2.3
			c-1.9-1.2-4.8-2-6.9-0.9c-1.2,0.6-2.4,1.7-3,3c-1.3,3.1,1.8,5.1,3.9,6.6c0.8,0.6,1.5,1.1,2.2,1.6c3.9,2.5,9,4.2,11.3,7.9
			c0.4,0.7,1,1.7,1.2,2.5c0.3,1,0.1,2.1-0.2,2.9c-0.4,0.4-0.4,0.5-1.2,1.3c-0.6,0.6-2.2,2-3.5,2.9c-1.6,1.1-2.8,1.8-4.8,2.5
			c-0.9,0.3-1.9,0.5-3.1,0.6c-1.6,0.1-3.5,0-4.9-0.4c-3.3-0.9-6-3.6-6.4-7.1c-0.1-0.7-0.2-1.5,0-2.1c0.2-0.7,1.4-1.2,2.1-1.6
			c0.8-0.6,1.4-1,2.1-1.4c-0.1,7.3,6.2,10.2,13.7,9.1c1-0.7,1.6-2.6,1.1-4.4c-0.7-2.8-2.7-4.4-5.2-5.6c-1.1-0.6-2.2-1.1-3.4-1.7
			c-0.5-0.2-1.1-0.6-1.6-0.9c-0.5-0.3-0.8-0.4-1.2-0.7c-0.4-0.3-1-0.7-1.3-1c-0.3-0.2-0.6-0.5-0.9-0.8c-1.3-1.1-2.3-1.8-3.4-3.3
			c-0.8-1-1.6-2.1-1.4-4c0.2-2.7,1.6-4.5,3.5-6c1.1-0.9,2-1.3,3.8-2c2.7-1,6-1.8,8.8-1.2c2.2,0.5,4.4,1.6,5.5,3.7
			C165.2,162.1,165.6,163.6,165.7,164.9z"/>
		<path id="XMLID_148_" class="st1" d="M107.8,165.9c-0.7-3.1-3.7-5.1-7.3-4.7c-6.1,0.8-7.9,5.9-8.7,11.8c0.1,5.1,0.8,9.6,4.3,12.5
			c2.1,1.8,4.4,2.9,8.3,2.6c3.8-0.3,6.5-2.5,8.6-4.8c0,0.4-0.4,0.8-0.6,1.1c-1.9,2.4-4.5,5.3-7.2,6.8c-2.7,1.5-6.9,1.7-9.8,0.3
			c-1.3-0.6-3.1-1.9-4.1-2.9c-3.4-3.6-4.8-9.5-3.3-16.3c1.1-5,5.1-9.1,8.9-12c1.3-1,2.9-2.1,4.5-2.5c3.1-0.8,7.2-0.2,9.1,1.5
			c0.7,0.6,1.7,1.9,1.6,2.8c-0.1,1-1.3,1.5-2,2.1C109.1,164.8,108.6,165.5,107.8,165.9z"/>
		<path id="XMLID_147_" class="st1" d="M42.6,193.2c-2.3,0.2-3.7-0.2-6-2.1c-2.5-2.1-3.4-4.7-3.4-9.4c0-0.9,0.1-2.1,0.1-2.1
			s1.3-0.6,2-1c0.5-0.2,0.7-0.3,1.1-0.5c0.9-0.4,1-0.4,1.7-0.7c0.1,2.7-0.2,4,0.3,6.4c0.5,2.4,2.6,4.8,4.4,5.5
			c0.6,0.2,1.8,0.4,2.3,0.2c0.9-0.2,2-0.9,2.5-1.5c2.7-2.1,1.4-21.1,1.7-28.2c2-0.9,3.7-1.6,5.3-2.4c0,3.1,0.1,6.6,0.1,9.9
			c0,1.5,0,3.1,0,5c0,3.3,0,4.8-0.1,7.8c-0.1,3.6-1.2,6.2-3.3,8c-2.1,1.8-3.5,2.9-6.1,4.1C43.4,193.2,44.1,192.9,42.6,193.2z"/>
		<path id="XMLID_35_" class="st1" d="M189.7,190.5c-0.5,0.3-1,0.6-1.5,0.8c-2,0.8-4.2,1-6.3,0.6c-1.1-0.2-2.4-0.6-3.4-1.1
			c-1.9-0.9-4-2.6-5.3-4.5c-1.4-2-2.7-4.6-3-6.8c-0.9-5.5,0.5-11.1,3.2-14.4c1.4-1.7,2.6-2.7,4.1-4c2.1-1.9,4.7-3.9,9.1-3.6
			c5.6,0.4,9.5,4.3,11.4,8.5c1.6,3.4,2.4,7.9,1.6,12.2c-0.5,2.5-1.2,4.6-2.6,6.2c-1.2,1.3-2.5,2.5-3.8,3.6
			C192,188.9,190.9,189.8,189.7,190.5z M190.1,164.2c-2-2-5.6-3.6-9.4-3.3c-2.3,0.2-3.4,1.5-4.4,3c-0.6,0.9-1,2-1.3,3
			c-2.6,9.3,1.7,18.7,8.8,20.8c2.8,0.8,5.9,0.6,7.9-0.4C196.6,182.2,195.2,169.3,190.1,164.2z"/>
		<path id="XMLID_142_" class="st1" d="M92.1,141.9c-0.7-1.2-1.8-2.7-2.5-3.9c-1.1-1.8-2.2-3.3-3.4-5c-3.6-5.3-7.4-10.4-11.4-15.4
			c-0.1,4.4-0.1,10.3-0.1,15.7c0,2,0.2,6.3,0.2,6.3s-1.4,1-1.9,1.3c-0.3,0.2-2.9,1.9-2.9,1.7c-0.3-9.7-0.6-20.2-0.2-30
			c0-0.7-0.2-2.3-0.2-2.3s2.2-1.6,3.1-2.3c0.6-0.4,1.2-0.8,1.7-1.2c1.6,2.3,2.8,4.6,4.4,6.8c4.7,6.4,8.9,12.9,13.6,19.3
			c-0.2-7.9,0.1-14.9,0-23c1.6-1.1,3.1-2.4,4.7-3.4c0.2,1.2,0.2,2.5,0.2,3.8c0.1,4.1,0,6.4,0,10.4c0,4.1-0.2,7.9-0.2,11.8
			c0,2.4-0.2,5.5-0.2,5.5s-2.2,2-2.7,2.4c-0.5,0.4-0.6,0.5-1,0.9C93.1,141.7,92.6,141.8,92.1,141.9z"/>
		<path id="XMLID_37_" class="st2" d="M63.6,139.6c-0.3,0.3-0.6,0.3-1.3,0.8c-0.5,0.3-1.3,0.6-1.4,0.7c-0.6,0.3-1.3,0.6-2,0.8
			c-1-2.1-1.7-4.5-2.5-6.7c-0.2-0.6-0.3-0.8-0.5-1.4c-0.1-0.3-0.3-0.9-0.4-1.2c-0.1-0.4-0.2-0.7-0.4-1c-4.5,0-8.1,0.6-12.8,1
			c-0.9,2.6-2.1,5.1-3,7.7c-0.7,0.5-0.9,0.5-2,1c-1.4,0.6-2.7,1.2-3,1.2c0.7-1.9,1.4-3.9,1.9-5c0.9-2.5,1.4-3.5,2.4-5.9
			c2.9-7.2,6-14.6,8.9-21.9c0.1-0.3,0.1-0.3,0-0.5c0.1-0.1,0.3-0.2,0.4-0.2c0.2-0.1,0.5-0.3,0.8-0.4c0.5-0.2,0.7-0.4,1.1-0.5
			c0.7-0.3,1-0.5,1.6-0.7c0.3-0.1,0.6-0.3,1.1-0.5c0,0.3,0,0.5,0.1,1c0,0.3,0.6,1.8,0.7,2.1c0.3,0.7,0.5,1.4,0.8,2.2
			c0.5,1.4,1,2.9,1.5,4.3c1.8,5.2,3.8,11,5.5,16.2C61.4,133.1,64,139.3,63.6,139.6z M54.3,128.4c-0.6-2.1-0.8-2.5-1.4-4.5
			c-0.2-0.7-0.5-1.6-0.6-1.8c-0.1-0.3-0.3-0.8-0.4-1.1c-0.7-2-1.4-3.9-2.1-5.7c0,0,0-0.1-0.1-0.1c-2.1,4.3-4,8.8-5.7,13.5
			C47.3,128.7,50.8,128.4,54.3,128.4z"/>
		<path id="XMLID_43_" class="st2" d="M84.8,190.4c-0.3,0.3-0.6,0.3-1.3,0.8c-0.5,0.3-1.3,0.6-1.4,0.7c-0.6,0.3-1.3,0.6-2,0.8
			c-1-2.1-1.7-4.5-2.5-6.7c-0.2-0.6-0.3-0.7-0.5-1.4c-0.1-0.3-0.3-0.9-0.4-1.2c-0.1-0.4-0.2-0.7-0.4-1c-4.5,0-8.1,0.6-12.8,1
			c-0.9,2.6-2.1,5.1-3,7.7c-0.7,0.5-0.9,0.5-2,1c-1.4,0.6-2.7,1.2-2.9,1.2c0.7-1.9,1.4-3.9,1.9-5c0.9-2.5,1.4-3.5,2.4-5.9
			c2.9-7.2,6-14.6,8.9-21.9c0.1-0.3,0.1-0.3,0-0.5c0.1-0.1,0.3-0.2,0.4-0.2c0.2-0.1,0.5-0.3,0.8-0.4c0.5-0.2,0.7-0.4,1.1-0.5
			c0.7-0.3,1-0.5,1.6-0.7c0.3-0.1,0.6-0.3,1.1-0.5c0,0.3,0,0.5,0.1,1c0,0.3,0.6,1.8,0.7,2.1c0.3,0.7,0.5,1.4,0.8,2.2
			c0.5,1.4,1,2.9,1.5,4.3c1.8,5.2,3.8,11,5.5,16.2C82.6,183.9,85.2,190.1,84.8,190.4z M75.4,179.1c-0.6-2.1-0.8-2.5-1.4-4.5
			c-0.2-0.7-0.5-1.6-0.6-1.8c-0.1-0.3-0.3-0.8-0.4-1.1c-0.7-2-1.4-3.9-2.1-5.7c0,0,0-0.1-0.1-0.1c-2.1,4.3-4,8.8-5.7,13.5
			C68.5,179.5,71.9,179.1,75.4,179.1z"/>
		<path id="XMLID_133_" class="st1" d="M226.5,192.2c-0.7-1.2-1.8-2.7-2.5-3.9c-1.1-1.8-2.2-3.3-3.4-5c-3.6-5.3-7.4-10.4-11.4-15.4
			c-0.1,4.4-0.1,10.3-0.1,15.7c0,2,0.2,6.3,0.2,6.3s-1.4,1-1.9,1.3c-0.3,0.2-2.9,1.9-2.9,1.7c-0.3-9.7-0.6-20.2-0.2-30
			c0-0.7-0.2-2.3-0.2-2.3s2.2-1.6,3.1-2.2c0.6-0.4,1.2-0.8,1.7-1.2c1.6,2.3,2.8,4.6,4.4,6.8c4.7,6.4,8.9,12.9,13.6,19.3
			c-0.2-7.9,0.1-14.9,0-23c1.6-1.1,3.1-2.4,4.7-3.4c0.2,1.2,0.2,2.5,0.2,3.8c0.1,4.1,0,6.4,0,10.4c0,4.1-0.2,7.9-0.2,11.8
			c0,2.4-0.2,5.5-0.2,5.5s-2.2,2-2.7,2.4c-0.5,0.4-0.6,0.5-1,0.9C227.5,191.9,227,192.1,226.5,192.2z"/>
	</g>
</g>
</svg>
