<svg id="Layer_1" xmlns="http://www.w3.org/2000/svg" viewBox="0 0 266.1 300"><style>.st0{fill:#423f3f}.st0,.st1{fill-rule:evenodd;clip-rule:evenodd}.st1,.st2{fill:#FFF}</style><g id="XMLID_1_"><path id="XMLID_161_" class="st0" d="M1.6 181.7v-80S.2 73.2 33.5 72.6l186.3-.1s43.1 3.8 44.1-43.3v160.7s1.3 38.5-43.8 37.6h-176s-40.9-1.9-42.5 43.3"/><g id="XMLID_176_"><path id="XMLID_159_" class="st1" d="M230 107.6c.1 0 2.2-1.2 2.2-1.2 0 5-.2 9.2-.3 14 0 3.2-.1 6.4-.2 9.7-.1 3.2-.2 6.1-.2 9.3 0 0-.5.5-1.2.9-.2.1-1.3.8-1.4 1-.3.2-1.8 1.2-1.8 1.4-.1-5.4.1-11.2.2-16.6 0-1.7.1-3.3 0-5 0-2.7 0-5.3.1-8 0 .1-.3.4-.3.5-1.2 1.8-1.1 1.6-2.2 3.4-.5.8-2 2.9-2.8 4.1-.4.6-1.4 2-1.4 2s-2.1 1.5-3.6 2.3c.1-.2-.3-.3-.5-.7-.7-.7-1-1.1-1.7-2-2-2.5-3.8-4.4-6.4-7.6 0 6.4-.2 13.6-.3 21.1 0 1-.1 3.5-.1 3.5s-1.3 1.1-1.8 1.5c-.4.3-1.9 1.3-2.3 1.8-.1-1.9 0-3.9.1-6 .2-5.8.1-11.8.1-18.2 0-2.7 0-4.8.1-7.2V110c1.6-1.4 4.9-3.5 4.9-3.5s.7.8 1.4 1.9c1.1 1.8 2.4 3.4 3.7 5.1 1.8 2.2 3.5 4.4 5.4 6.6 2.4-3.6 4.1-6.1 6.3-10 1.8-1.2 2.2-1.4 4-2.5z"/><path id="XMLID_157_" class="st1" d="M144.4 106.5c-.1 6.2-.3 12.8-.2 19.1 4.2.4 10.5-.1 15.4.1.3-5.1.1-11.2.4-15.9 1.8-1.2 1.5-1.1 3.2-2.1.9-.5 1.4-.9 1.8-1.2 0 1.3 0 3.1-.1 4.2-.1 2 0 2.9-.1 4.7-.1 3.8-.1 7.3-.2 10.9-.1 2.1-.1 4.4-.2 6.5 0 .9.1 4.2 0 7.2-1.2.6-.6.4-2.2 1.1-1.1.5-3 1.5-3 1.6 0-4.9.5-9 .2-13.1-5.2-.3-10.2.3-15.2.5-.2 0-.1 5.5-.1 6-.1 1.7.1 4.2.1 4.2s-3.7 2-4.8 2.7c-.2-1.1 0-2.2 0-2.9 0-9 .2-19.9.2-30.1 1.4-1.3 3.1-2.4 4.8-3.5z"/><path id="XMLID_156_" class="st1" d="M196.7 106.9s-1 1.1-1.8 2c-1.1 1-2.5 2.1-2.5 2.1h-13.3c-.2 4.1-.3 9.7-.2 14.3 5.8 0 11.9-.3 17.3.1-.7.6-1 1.1-1.7 1.8-1.2 1.1-2.3 2.1-2.3 2.1s-3.1.1-4.1.1c-2.7.1-5.9 0-9.4.4-.4 2.9-.4 4.8-.5 7.7 3.7.2 7.5.1 11.6.1 2.3 0 4.6-.2 7.3-.2-.6.8-1.5 1.7-2.3 2.4l-2.4 2s-3.7-.1-5.6 0c-3.5.1-6.7.2-10.6.3h-2.5v-4.3c0-4.1-.1-8.2 0-12.5v-7.6c0-2.6.1-4.8.2-7.6 0-.2 2.3-1.6 2.6-1.8.7-.5 2.1-1.3 2.1-1.3s2.4-.1 3.5-.2h3.5c2.5 0 4.9-.1 7.4 0 .2 0 3.7.1 3.7.1z"/><path id="XMLID_154_" class="st1" d="M135.3 106.9c-1.4 1.5-3.4 3.1-5.1 4.5h-3.6c-1.6 0-3.1 0-5.3.1 0 8.9-.4 28.1-.4 28.1s-1.6 1-1.9 1.3c-.3.2-3.6 1.9-3.5 2-.1-2.9.3-6.3.4-9.7.1-4.7.1-8.1.3-12.5.1-2.3.1-4.9.1-7v-2.2c-3.3 0-5.2.1-8.2.1-1.8 0-2.4-.1-5.1.1.7-1 1.2-1.5 1.6-1.9.5-.5.9-1.1 1.4-1.6l1.2-1.2s13.3-.2 19.1-.1c2.8 0 6-.1 9 0z"/><path id="XMLID_152_" class="st1" d="M139.1 157.1c.1 0 .1.1.1.2-1.4 3.3-3.7 5.5-5.8 8-2.5 2.9-4.5 5.6-6.8 8 2.2 2.9 4 5.1 6.2 7.9 2.2 2.8 4.6 5.4 6.6 8.5-1.3 1.2-2.7 2.2-4.1 3.1-2.2-2.7-4.5-5.3-6.7-8s-4-5.7-6.5-8.2c-.5.6-.3 1-.3 1.5-.1 2.9-.1 4.4-.1 7.1v2.5c0 1.2 0 1-.1 2.1-1.1 1.2-3.4 2.9-4.8 3.8.1-11.5.6-21.6 0-33.4 1.5-1.2 3.1-2.1 4.6-3 .4 1.6.3 3.6.3 5.3.1 3.4.1 6.5.2 11.2 1.3-.9 2.3-2.1 3.3-3.3 3.1-3.5 6.5-7.2 9.2-11.2 1.7-.8 3.1-1 4.7-2.1z"/><path id="XMLID_150_" class="st1" d="M165.7 164.9c-1.4 1-2.7 1.3-4.4 2.1.3-.1-.9-2.9-1-3.2-.5-1-1.3-1.8-2.3-2.3-1.9-1.2-4.8-2-6.9-.9-1.2.6-2.4 1.7-3 3-1.3 3.1 1.8 5.1 3.9 6.6.8.6 1.5 1.1 2.2 1.6 3.9 2.5 9 4.2 11.3 7.9.4.7 1 1.7 1.2 2.5.3 1 .1 2.1-.2 2.9-.4.4-.4.5-1.2 1.3-.6.6-2.2 2-3.5 2.9-1.6 1.1-2.8 1.8-4.8 2.5-.9.3-1.9.5-3.1.6-1.6.1-3.5 0-4.9-.4-3.3-.9-6-3.6-6.4-7.1-.1-.7-.2-1.5 0-2.1.2-.7 1.4-1.2 2.1-1.6.8-.6 1.4-1 2.1-1.4-.1 7.3 6.2 10.2 13.7 9.1 1-.7 1.6-2.6 1.1-4.4-.7-2.8-2.7-4.4-5.2-5.6-1.1-.6-2.2-1.1-3.4-1.7-.5-.2-1.1-.6-1.6-.9-.5-.3-.8-.4-1.2-.7-.4-.3-1-.7-1.3-1-.3-.2-.6-.5-.9-.8-1.3-1.1-2.3-1.8-3.4-3.3-.8-1-1.6-2.1-1.4-4 .2-2.7 1.6-4.5 3.5-6 1.1-.9 2-1.3 3.8-2 2.7-1 6-1.8 8.8-1.2 2.2.5 4.4 1.6 5.5 3.7.4 1.1.8 2.6.9 3.9z"/><path id="XMLID_148_" class="st1" d="M107.8 165.9c-.7-3.1-3.7-5.1-7.3-4.7-6.1.8-7.9 5.9-8.7 11.8.1 5.1.8 9.6 4.3 12.5 2.1 1.8 4.4 2.9 8.3 2.6 3.8-.3 6.5-2.5 8.6-4.8 0 .4-.4.8-.6 1.1-1.9 2.4-4.5 5.3-7.2 6.8s-6.9 1.7-9.8.3c-1.3-.6-3.1-1.9-4.1-2.9-3.4-3.6-4.8-9.5-3.3-16.3 1.1-5 5.1-9.1 8.9-12 1.3-1 2.9-2.1 4.5-2.5 3.1-.8 7.2-.2 9.1 1.5.7.6 1.7 1.9 1.6 2.8-.1 1-1.3 1.5-2 2.1-1 .6-1.5 1.3-2.3 1.7z"/><path id="XMLID_147_" class="st1" d="M42.6 193.2c-2.3.2-3.7-.2-6-2.1-2.5-2.1-3.4-4.7-3.4-9.4 0-.9.1-2.1.1-2.1s1.3-.6 2-1c.5-.2.7-.3 1.1-.5.9-.4 1-.4 1.7-.7.1 2.7-.2 4 .3 6.4.5 2.4 2.6 4.8 4.4 5.5.6.2 1.8.4 2.3.2.9-.2 2-.9 2.5-1.5 2.7-2.1 1.4-21.1 1.7-28.2 2-.9 3.7-1.6 5.3-2.4 0 3.1.1 6.6.1 9.9v5c0 3.3 0 4.8-.1 7.8-.1 3.6-1.2 6.2-3.3 8-2.1 1.8-3.5 2.9-6.1 4.1-1.8 1-1.1.7-2.6 1z"/><path id="XMLID_35_" class="st1" d="M189.7 190.5c-.5.3-1 .6-1.5.8-2 .8-4.2 1-6.3.6-1.1-.2-2.4-.6-3.4-1.1-1.9-.9-4-2.6-5.3-4.5-1.4-2-2.7-4.6-3-6.8-.9-5.5.5-11.1 3.2-14.4 1.4-1.7 2.6-2.7 4.1-4 2.1-1.9 4.7-3.9 9.1-3.6 5.6.4 9.5 4.3 11.4 8.5 1.6 3.4 2.4 7.9 1.6 12.2-.5 2.5-1.2 4.6-2.6 6.2-1.2 1.3-2.5 2.5-3.8 3.6-1.2.9-2.3 1.8-3.5 2.5zm.4-26.3c-2-2-5.6-3.6-9.4-3.3-2.3.2-3.4 1.5-4.4 3-.6.9-1 2-1.3 3-2.6 9.3 1.7 18.7 8.8 20.8 2.8.8 5.9.6 7.9-.4 4.9-5.1 3.5-18-1.6-23.1z"/><path id="XMLID_142_" class="st1" d="M92.1 141.9c-.7-1.2-1.8-2.7-2.5-3.9-1.1-1.8-2.2-3.3-3.4-5-3.6-5.3-7.4-10.4-11.4-15.4-.1 4.4-.1 10.3-.1 15.7 0 2 .2 6.3.2 6.3s-1.4 1-1.9 1.3c-.3.2-2.9 1.9-2.9 1.7-.3-9.7-.6-20.2-.2-30 0-.7-.2-2.3-.2-2.3s2.2-1.6 3.1-2.3c.6-.4 1.2-.8 1.7-1.2 1.6 2.3 2.8 4.6 4.4 6.8 4.7 6.4 8.9 12.9 13.6 19.3-.2-7.9.1-14.9 0-23 1.6-1.1 3.1-2.4 4.7-3.4.2 1.2.2 2.5.2 3.8.1 4.1 0 6.4 0 10.4 0 4.1-.2 7.9-.2 11.8 0 2.4-.2 5.5-.2 5.5s-2.2 2-2.7 2.4c-.5.4-.6.5-1 .9-.2.4-.7.5-1.2.6z"/><path id="XMLID_37_" class="st2" d="M63.6 139.6c-.3.3-.6.3-1.3.8-.5.3-1.3.6-1.4.7-.6.3-1.3.6-2 .8-1-2.1-1.7-4.5-2.5-6.7-.2-.6-.3-.8-.5-1.4l-.4-1.2c-.1-.4-.2-.7-.4-1-4.5 0-8.1.6-12.8 1-.9 2.6-2.1 5.1-3 7.7-.7.5-.9.5-2 1-1.4.6-2.7 1.2-3 1.2.7-1.9 1.4-3.9 1.9-5 .9-2.5 1.4-3.5 2.4-5.9 2.9-7.2 6-14.6 8.9-21.9.1-.3.1-.3 0-.5.1-.1.3-.2.4-.2.2-.1.5-.3.8-.4.5-.2.7-.4 1.1-.5.7-.3 1-.5 1.6-.7.3-.1.6-.3 1.1-.5 0 .3 0 .5.1 1 0 .3.6 1.8.7 2.1.3.7.5 1.4.8 2.2.5 1.4 1 2.9 1.5 4.3 1.8 5.2 3.8 11 5.5 16.2.3.4 2.9 6.6 2.5 6.9zm-9.3-11.2c-.6-2.1-.8-2.5-1.4-4.5-.2-.7-.5-1.6-.6-1.8-.1-.3-.3-.8-.4-1.1-.7-2-1.4-3.9-2.1-5.7 0 0 0-.1-.1-.1-2.1 4.3-4 8.8-5.7 13.5 3.3 0 6.8-.3 10.3-.3z"/><path id="XMLID_43_" class="st2" d="M84.8 190.4c-.3.3-.6.3-1.3.8-.5.3-1.3.6-1.4.7-.6.3-1.3.6-2 .8-1-2.1-1.7-4.5-2.5-6.7-.2-.6-.3-.7-.5-1.4l-.4-1.2c-.1-.4-.2-.7-.4-1-4.5 0-8.1.6-12.8 1-.9 2.6-2.1 5.1-3 7.7-.7.5-.9.5-2 1-1.4.6-2.7 1.2-2.9 1.2.7-1.9 1.4-3.9 1.9-5 .9-2.5 1.4-3.5 2.4-5.9 2.9-7.2 6-14.6 8.9-21.9.1-.3.1-.3 0-.5.1-.1.3-.2.4-.2.2-.1.5-.3.8-.4.5-.2.7-.4 1.1-.5.7-.3 1-.5 1.6-.7.3-.1.6-.3 1.1-.5 0 .3 0 .5.1 1 0 .3.6 1.8.7 2.1.3.7.5 1.4.8 2.2.5 1.4 1 2.9 1.5 4.3 1.8 5.2 3.8 11 5.5 16.2.2.4 2.8 6.6 2.4 6.9zm-9.4-11.3c-.6-2.1-.8-2.5-1.4-4.5-.2-.7-.5-1.6-.6-1.8-.1-.3-.3-.8-.4-1.1-.7-2-1.4-3.9-2.1-5.7 0 0 0-.1-.1-.1-2.1 4.3-4 8.8-5.7 13.5 3.4.1 6.8-.3 10.3-.3z"/><path id="XMLID_133_" class="st1" d="M226.5 192.2c-.7-1.2-1.8-2.7-2.5-3.9-1.1-1.8-2.2-3.3-3.4-5-3.6-5.3-7.4-10.4-11.4-15.4-.1 4.4-.1 10.3-.1 15.7 0 2 .2 6.3.2 6.3s-1.4 1-1.9 1.3c-.3.2-2.9 1.9-2.9 1.7-.3-9.7-.6-20.2-.2-30 0-.7-.2-2.3-.2-2.3s2.2-1.6 3.1-2.2c.6-.4 1.2-.8 1.7-1.2 1.6 2.3 2.8 4.6 4.4 6.8 4.7 6.4 8.9 12.9 13.6 19.3-.2-7.9.1-14.9 0-23 1.6-1.1 3.1-2.4 4.7-3.4.2 1.2.2 2.5.2 3.8.1 4.1 0 6.4 0 10.4 0 4.1-.2 7.9-.2 11.8 0 2.4-.2 5.5-.2 5.5s-2.2 2-2.7 2.4c-.5.4-.6.5-1 .9-.2.2-.7.4-1.2.5z"/></g></g></svg>