<svg id="Layer_1" xmlns="http://www.w3.org/2000/svg" viewBox="0 0 222.9 300"><style>.st0{display:none;opacity:.5}.st1{fill:#d0043c}.st2{fill:#fffff3}</style><path id="XMLID_59_" class="st0" d="M111 129.1c-11.6 0-20.9 9.4-20.9 20.9s9.4 20.9 20.9 20.9 20.9-9.4 20.9-20.9-9.4-20.9-20.9-20.9zm12 22.9h-9v10h-5v-10h-9v-6h9v-10h5v10h9v6z"/><g id="XMLID_63_"><path id="XMLID_132_" class="st1" d="M194 162.5c0 46.7-37.8 84.5-84.5 84.5S25 209.1 25 162.5C25 115.8 62.8 78 109.5 78c46.7-.1 84.5 37.8 84.5 84.5z"/><g id="XMLID_201_"><path id="XMLID_215_" class="st2" d="M84.8 220.8c0 1.3-.4 2.2-1.2 2.9-.7.7-1.8 1-3.1 1-1.7 0-3.2-.5-4.3-1.4v-2.9h2.5c0 1.4.6 2.2 1.8 2.2.5 0 .9-.2 1.2-.5.3-.3.5-.7.5-1.2 0-.8-.5-1.4-1.6-1.9-.3-.1-1.3-.6-2.9-1.2-1-.6-1.6-1.6-1.6-2.8 0-1.2.4-2.1 1.3-2.8.8-.6 1.8-.9 3-.9 1.5 0 2.9.4 4.1 1.3v2.8h-2.4c0-.6-.1-1.1-.4-1.4-.3-.4-.7-.6-1.3-.6-.5 0-.9.1-1.2.4-.4.3-.5.7-.5 1.1 0 .5.4 1 1.1 1.4.2.1 1 .4 2.3 1 1 .4 1.7.8 2 1.2.5.5.7 1.3.7 2.3z"/><path id="XMLID_212_" class="st2" d="M95.6 220.2c0 1.7-.3 2.8-.8 3.5-.6.7-1.7 1-3.4 1-2.3 0-3.7-.8-4.1-2.3-.1-.4-.2-1.2-.2-2.2v-4.4c0-1.1 0-1.8.1-2.2.4-1.5 1.7-2.3 4.1-2.3 2.4 0 3.7.8 4.1 2.4.1.4.1 1.2.1 2.2v4.3zm-2.5.2v-4.6c0-1.5-.6-2.2-1.7-2.2s-1.7.7-1.7 2.2v4.6c0 1.5.6 2.2 1.7 2.2s1.7-.7 1.7-2.2z"/><path id="XMLID_210_" class="st2" d="M106.4 223.8c-1.3.6-2.7.9-4.1.9-2.4 0-3.7-.8-4.1-2.3-.1-.5-.2-1.2-.2-2.2v-4.4c0-.9 0-1.6.1-2 .3-1.7 1.7-2.5 4.1-2.5 1.5 0 2.8.3 4.1.9v3.4h-2.4c0-1.4-.6-2.1-1.7-2.1s-1.7.7-1.7 2.2v4.6c0 1.5.6 2.2 1.7 2.2.8 0 1.3-.3 1.5-1 .1-.3.2-1 .2-2h2.4v4.3z"/><path id="XMLID_208_" class="st2" d="M113 224.5h-4v-1.8c.5-.2.7-.7.7-1.5v-6.3c0-.4 0-.7-.1-.9-.1-.3-.3-.5-.6-.6v-1.7h3.9v1.7c-.4.2-.7.7-.7 1.5v6.4c0 .9.2 1.4.7 1.5v1.7z"/><path id="XMLID_206_" class="st2" d="M124.3 224.5h-8.9v-1.8c.5-.2.7-.7.7-1.6v-6.2c0-.5 0-.8-.1-.9-.1-.3-.3-.5-.6-.6v-1.7h8.9v3.6h-2.4c0-.2-.1-.4-.1-.5-.1-.4-.3-.6-.4-.7-.3-.2-.8-.3-1.5-.3h-.6H118.7v3.4h3.7v1.7h-3.7v3.8h1.6c.7 0 1.1-.2 1.4-.5.2-.3.3-.7.3-1.4h2.4v3.7z"/><path id="XMLID_204_" class="st2" d="M136.1 216.5h-1.9c0-1.1 0-1.8-.1-2-.2-.6-.8-.8-1.7-.8v7.5c0 .5 0 .8.1.9.1.3.3.6.6.7v1.8h-3.9v-1.8c.5-.2.7-.7.7-1.5v-7.6c-.9 0-1.4.3-1.6.9-.1.2-.1.9-.1 2h-2v-4.9h10v4.8z"/><path id="XMLID_202_" class="st2" d="M146.6 213.3c-.2.1-.4.3-.7.8l-2.6 5.2v1.8c0 .8.2 1.4.7 1.5v1.8h-4v-1.8c.5-.2.7-.7.7-1.5v-.9-.2-.6l-2.6-5.4c-.2-.5-.5-.7-.7-.9v-1.7h3.4c0 1.3.1 2.2.2 2.6 0 .1.4 1 1.3 2.7l.9-1.6c.3-.6.5-1.2.6-1.8.1-.4.1-1.1 0-1.9h2.9v1.9z"/></g><path id="XMLID_123_" class="st1" d="M31.2 168.8s-5.9-.6-8.9-.6c-3.3 0-6.1.3-8.8 1.2-1.9.7-3.8 1.8-5.3 3.4-1.5 1.6-2.5 3.6-3 5.7-.4 1.9-.5 3.6-.5 6v9.8c0 2.7.1 4.5.6 6.7.9 3.5 3.7 6.4 6.8 7.8 3.1 1.4 6.4 1.9 10.2 1.9 2.3 0 4.6-.2 6.7-.6h184.1v-14.8l-1.9-.6v-.6l5.9-9.7 3-.9v-14.7H31.2z"/><path id="XMLID_197_" class="st2" d="M109.4 86.4c-41.9 0-75.9 34-75.9 75.9 0 2.2.1 4.3.3 6.5h3c-.2-2.1-.3-4.3-.3-6.5 0-20.1 8.2-38.4 21.4-51.6 13.2-13.2 31.4-21.4 51.6-21.4 20.1 0 38.4 8.2 51.6 21.4 13.2 13.2 21.4 31.4 21.4 51.6 0 2.2-.1 4.3-.3 6.5h3c.2-2.1.3-4.3.3-6.5-.1-41.9-34.1-75.9-76.1-75.9zM161 213.9c-13.2 13.2-31.4 21.4-51.6 21.4-20.1 0-38.4-8.2-51.6-21.4-1.2-1.2-2.4-2.5-3.5-3.8h-3.9c13.9 17.2 35.2 28.2 59 28.2 23.8 0 45.1-11 59-28.2h-3.9c-1.1 1.3-2.3 2.6-3.5 3.8z"/><g id="XMLID_180_"><path id="XMLID_195_" class="st2" d="M33.2 202.4c-3.3 1.4-6.9 2.1-10.9 2.1-6.4 0-10-1.7-11-5.1-.3-.9-.4-2.6-.4-5v-9.8c0-2.1.1-3.7.3-4.6.5-2.3 2-3.8 4.4-4.7 1.6-.6 3.8-.8 6.7-.8 3.8 0 7.5.7 10.9 2v7.5h-6.4c0-3.1-1.5-4.7-4.5-4.7-1.7 0-2.9.4-3.5 1.2-.7.8-1 2.1-1 3.8v10.3c0 3.3 1.5 5 4.6 5 2 0 3.3-.6 3.9-1.9.4-.8.6-2.3.6-4.6h6.4v9.3z"/><path id="XMLID_192_" class="st2" d="M64.2 203.8H53.4v-3.9c1.2-.4 1.8-1.1 1.8-2.3 0-.4-.2-1.2-.5-2.4h-8.2c-.4 1.5-.5 2.4-.5 2.7 0 1.2.6 1.8 1.9 2v3.9h-9.6v-4c1-.4 1.8-1.6 2.2-3.5l5-21.4h11.2l5.5 21.8c.4 1.6 1.1 2.6 2.1 3v4.1zm-10.5-11.6L51.1 180h-1.5L47 192.2h6.7z"/><path id="XMLID_190_" class="st2" d="M94.7 178.9c-.9.3-1.4.8-1.7 1.5-.2.4-.2 1.2-.2 2.3v21.2h-6.3l-8.9-16.7-1.4.2v9.1c0 1.9.6 3 1.9 3.4v4h-9.9v-4c.8-.3 1.4-.8 1.6-1.4.2-.4.2-1.1.2-2.1v-14.5c0-1.6-.6-2.7-1.9-3.1V175h8.3l8.8 16.5 1.4-.2v-9c0-1.9-.6-3.1-1.9-3.5V175h10v3.9z"/><path id="XMLID_188_" class="st2" d="M126.8 178.9c-.9.3-1.4.8-1.7 1.5-.2.4-.2 1.2-.2 2.3v21.2h-6.3l-8.9-16.7-1.4.2v9.1c0 1.9.6 3 1.9 3.4v4h-9.9v-4c.8-.3 1.4-.8 1.6-1.4.2-.4.2-1.1.2-2.1v-14.5c0-1.6-.6-2.7-1.9-3.1V175h8.3l8.8 16.5 1.4-.2v-9c0-1.9-.6-3.1-1.9-3.5V175h10v3.9z"/><path id="XMLID_186_" class="st2" d="M156.4 203.8h-23.9v-4c1.2-.4 1.9-1.5 1.9-3.4v-14.2c0-1-.1-1.7-.3-2.1-.3-.6-.8-1-1.6-1.3V175h23.9v8H150c0-1.4-.5-2.3-1.5-2.8-.7-.4-1.9-.6-3.5-.6h-3.8v7.5h9.9v3.8h-9.9v8.5h4.3c1.6 0 2.8-.3 3.4-.9.7-.6 1-1.8 1-3.4h6.4v8.7z"/><path id="XMLID_183_" class="st2" d="M187.2 203.8h-7.7c-.4-1-.5-2.2-.5-3.6 0-.4 0-1.1.1-1.9 0-.8.1-1.5.1-1.9 0-1.7-.4-2.9-1.2-3.6-.8-.7-2.1-1-3.9-1h-3.3v4.4c0 2 .6 3.2 1.8 3.6v4h-10.5v-4c.8-.2 1.3-.7 1.6-1.4.2-.4.2-1.1.2-2.1v-13.9c0-1-.1-1.8-.2-2.2-.2-.6-.8-1.1-1.6-1.4V175h13.4c3.4 0 6 .5 7.7 1.4 2.3 1.2 3.4 3.5 3.4 6.6 0 3.5-1.6 5.7-4.9 6.4v1.2c.8.1 1.4.3 2 .5 1.4.5 2.1 1.9 2.1 4.1v1.2c0 1.9.5 3 1.5 3.4v4zm-7.5-20.1c0-2.8-1.7-4.2-5-4.2h-4.1v8.4h3.9c3.5-.1 5.2-1.5 5.2-4.2z"/><path id="XMLID_181_" class="st2" d="M214.1 178.9c-.6.2-1.2.8-1.9 1.9l-7 11.7V196.6c0 .9.1 1.6.3 2.1.3.6.8 1.1 1.6 1.3v4h-10.6v-4c1.3-.4 1.9-1.5 1.9-3.3v-1.9-1.1-.8l-7.1-12c-.6-1-1.2-1.7-1.9-1.9v-4h9.1c0 2.5 0 4 .1 4.6.1.9.4 1.8.9 2.6.6 1 1.5 2.5 2.8 4.5l2.5-4.1c.7-1.2 1.1-2.4 1.3-3.7.1-.9.2-2.2.1-4h7.8v4z"/></g><path id="XMLID_111_" class="st1" d="M172.8 162.7c-.1-2.2-.8-4.8-1.6-7.2-.8-2.4-1.7-4.5-2-5.4-.6-1.5-.8-2.5-1.5-4.5-.1-.1-.4-1.1-.6-2.3-.4-1.8-1-4.3-1.4-6.6-.3-1.3-.5-2.6-.6-3.6h.1c.7.2 1.6.5 2.5.6h.6c.5 0 1 0 1.7-.5.7-.4 1.1-1.3 1-1.9 0-.8-.3-1.2-.4-1.4-.2-.3-.3-.4-.3-.5l-.3-.3s-2-1.6-4.2-3.6-4.6-4.6-5.2-5.7c-2-3.6-9.5-14.8-20.5-19.7-9.1-3.9-18.2-4.2-21-4.2h-.2l-.2-.2v-.4-.5-.2l-1.1-2.2-1.5-.7c-.1-.5-.2-1-.4-1.6-.4-.9-.9-1.1-1.3-1.3-.2-.1-.5-.2-.7-.3l-.6-1.4-1.5-1.2s-.1 0-.3-.1c-.1 0-.2 0-.3-.1 0-.1-.1-.3-.1-.5 0-.1 0-.7-.2-1.3-.1-.4-.2-.8-.6-1.3-.4-.5-1.3-1-2-.9-.7 0-1 .2-1.4.3-2.4 1-8 4.5-11.8 8.3-3.7 3.7-8 10.9-9.3 13.2-.6.3-1.6.8-3.1 1.7-2.8 1.7-7.7 5.1-15.8 11.6-17.1 13.6-22.8 29.3-23.3 30.5-.1.2-.7 1.8-1.3 3.6-.7 2-1.5 4.7-1.7 6.6-.1 2 .3 3.3.9 4 .6.7 2.3 1.3 3.5 1.3 1.7 0 3.9-2 5.8-2.7 0 0-.9.8-1.3 1.4-.4.6-.8.9-1 2.1v.6c0 .7.2 1.6.7 2.2.5.6 1 1.1 1.6 1.4.9.5 1.9.8 3.1.8 1.3 0 2.7-.3 4.3-.9 3.3-1.2 9-5 12.4-7.3 3.2-2.2 7.3-4.9 8.8-5.6.2-.1.4-.1.7-.1.7 0 2.3.6 4.7 1 2.7.4 7.3 2.2 9.4 3.5 1.2.7 2.2 1 3.2 1 .7 0 1.5-.2 2.1-.7.6-.5 1-1.3 1-2.1 0-.2 0-.5-.1-.7-.1-.5-.3-1-.6-1.7-.4-.9-.8-1.9-1.2-2.9.6-.1 1.2-.1 1.6-.2 1.8-.3 2.7-1.8 2.7-3.3.1-1.1-.7-2.4-1.9-2.8l-.1-.1c-.3-.2-.9-.8-1.3-1.3l-.1-.1c.8-.6 2.2-1.5 3.6-2.3 2.2-1.2 4.7-2.5 6.4-3.1 3.6-1.3 10.7-4 12.8-4.8 1.8.4 7.1 1.7 9.2 2.3 2.8.8 12.2 2.4 12.3 2.4l2.1-3s-.4-.7-.9-1.6l.5.5c.9.9 1.7 2.8 1.7 4.1 0 .3 0 .6-.1.8-.1.5-.8 1.6-2.2 3.2-1.3 1.7-3.2 4-5.6 7.4-5 7.2-5.5 17.2-5.5 17.2s4-1 5.4-2.5c.1-.1.4-.3.6-.5.1 0 .2-.1.2-.1h.7c1.1 0 2.9-.1 4.5-1.6.2-.2.3-.2.7-.2.3 0 .7.1 1.3.1.3.1 1.3.6 2.8.7.6 0 1.3-.1 1.9-.4.7-.3 1.3-.7 1.7-1.2.2.3.5.5.8.8 1 .7 1.8.8 2.6 1 .8.1 1.6.3 2.5.5.7.2.7.3.9.6.1.1.2.3.3.5.2.2.3.7 1 1.1.5.3 1.1.4 1.5.4.6 0 .9-.1 1.1-.1.2.3.7.9 1.1 1.5.8 1.1 1.7 1.6 2.4 1.9.7.4 3.2 1.8 3.2 1.8l.6-2.3c.1-.2 1.2-2.8 1.2-6.6.2.1.2 0 .2-.1z"/><path id="XMLID_69_" class="st2" d="M167.4 150.3c-.7-1.7-.8-2.7-1.5-4.5-.7-1.7-3.3-13.9-2.9-15.1.5-1.1 3.1.4 4.9.6 1.8.2.8-1 .8-1s-8.2-6.6-9.9-9.9c-1.7-3.3-9.3-14.3-19.5-18.8s-20.9-4-20.9-4-1.2-.6-1.5-1.5c-.4-.9-.1-2.2-.1-2.2l-2.5-1.1s-.3-1.8-.5-2.2c-.2-.5-1.6-.6-1.6-.6l-1-2.4s-.7-.1-1.5-.5c-.8-.3-.4-.8-.7-1.4-.3-.7 0-2.3-.9-2.3s-7.7 4.1-11.8 8.1c-4 4-9.3 13.4-9.3 13.4s-3 .1-19.1 13.2c-21.5 17.5-26.1 38.3-25.9 40.3.2 1.8 1.8 2.3 3.2 2.2.9-.1 2.9-1.5 5.6-1.9 3-.5 6 .8 8.2-.1 2.7-1 5.3.6-1.2 2.7-3 1-5.1-.8-5.1-.8s-2.3 2-2.4 3c-.1 1 .3 1.6 1.3 2.3 1.1.6 2.8.7 5.6-.3s8.6-4.8 11.9-7.1c3.2-2.2 7.2-4.9 9-5.8 1.8-.9 3.6.2 6.6.7 3 .5 7.6 2.3 10.1 3.7 2.4 1.4 3.6.6 3.4-.3-.2-.9-2.9-6.9-2.9-6.9s3.1-.2 4.3-.4c1.1-.2 1.5-1.8.4-2.3-1.1-.5-3.3-2.9-3.1-3.8.2-.9 7.6-5.2 11.8-6.7 4.2-1.6 13.4-5 13.4-5s7.3 1.8 9.8 2.5c2.6.7 12.1 2.4 12.1 2.4s-3.5-6-2.5-6.5 3.4 1.2 5.2 2.9c1.8 1.7 2.7 4.8 2.1 6.9-.6 2.1-3.4 4.6-8 11.3-4.7 6.7-5 13.1-5 13.1s1.1 0 1.8-.9c.7-.8 2-1.3 2.4-1.3.4.1 2.6.2 3.8-1 1.2-1.1 2.5-.7 3.5-.7.9 0 2.2 1.1 3.9.4 1.7-.7 2.5-3.1 2.5-3.1s1.3 2.4 2 3.1c.8.6 2.4.5 4.5 1.1 2.1.6 2.2 2.1 2.7 2.4.5.3 1.2-.1 2 0s1.6 1.4 2.3 2.4c.7 1.1 2.7 1.7 2.7 1.7s1.1-2.6 1-6c-.1-3.6-2.8-10.3-3.5-12z"/><path id="XMLID_110_" class="st1" d="M92.8 149.6s1.8 3.7 1.9 4.2c.2.5.9 1.9-3.5.1-4.4-1.9-7.1-2.2-7.1-2.2s-2.8-1-.6-2.4c2.2-1.4 3.2-1.7 3.2-1.7l6.1 2z"/><path id="XMLID_109_" class="st1" d="M58.9 143.4s-.9.9.1 2.1c1.1 1.2 3.2 1.5 3.7 2.5.5 1.1.3 3.6-.5 4-.8.4-2.6 1.7-2.6 1.7s-.6 1.8 2.6.9 4.8.4 5.3.9 3.2 1.5 4.7-3.6.5-7.8-3-9c-3.4-1.2-4.4-.4-6.1-.2-1.7.3-4.2.7-4.2.7z"/><path id="XMLID_108_" class="st1" d="M71.7 138.2s-1.9-.7-4.4-.7c-2.5 0-4.8.2-5.3.7-.5.5-2.2 2.4.4 2.3 2.6-.1 5.4-.1 7.1.1 1.7.2 4.4.9 5 2.9.6 2 .5 4.1.8 5.1.3.9 2 1.2 2-1.4 0-2.5-.7-5.3-2.3-7-1.5-1.9-3.3-2-3.3-2z"/><path id="XMLID_107_" class="st2" d="M62.5 134.4s10.2.2 13.7 2.9c3.9 2.9 3.9 6.1 3.3 9-.6 2.9-2.8 4.6-2.8 4.6s-2.3 1.8-1.2-1.9c1-3.7 1.3-6.1-.1-8.2-1.5-2.1-5.6-3.2-8.6-3.6-2-.3-4.7-.8-6.4-.6-1.1.2-1.8.1-1.9-.7-.1-1.5 4-1.5 4-1.5z"/><path id="XMLID_106_" class="st1" d="M106.7 85.7s-4.6 2.4-9.2 7.7c-4.6 5.3-6.7 10.1-6.7 10.1l3-.8s2.5-5.2 8.1-9.8c5.6-4.5 5.7-4.6 5.7-4.6l-.9-2.6z"/><path id="XMLID_105_" class="st1" d="M110 91.2s-.1-1-.5-1.3c-.4-.4-.8-.4-.8-.4s-6.6 4.7-9.1 8-2.7 3.6-1.8 4.1c.9.5 1.3-.2 2-1.1.8-.9 3.4-3.9 6-5.9 2.7-2.1 4.2-3.4 4.2-3.4z"/><path id="XMLID_104_" class="st1" d="M111.9 92.9s-.2.2-.7-.3c-.5-.5-.9-.2-1.8.4-.9.6-3.5 3.2-4.2 3.9-.7.8-2.9 3.4-2.9 3.4s1.8.6 2.9-.8c1.1-1.4 2.3-2.4 3-3.2.7-.7 3.7-3.4 3.7-3.4z"/><path id="XMLID_103_" class="st1" d="M113.7 95.4s.6-1.2-.4-1.5c-1-.3-1.2.3-1.4.5-.2.2-3.8 3.5-4.3 4.3-.5.9.8 1.2 1.7.5.9-.6 4.4-3.8 4.4-3.8z"/><path id="XMLID_102_" class="st1" d="M114.3 96.8l-1.8 2.4 3.1-.5z"/><path id="XMLID_101_" class="st1" d="M146.8 127.4s0-.1-.1-.3c-.2-.7-.8-2.6.2-3.1 1.2-.7 2.5.5 2.7 1.9.2 1.4 0 3.3.3 4.1.2.8 1 2.4-.1 2.5-1.1.1-1.5-1.5-3.3-2.8-1.8-1.3-7.5-4.6-17.6-1.5-10.1 3.2-20.8 6.5-31.8 13-6.9 4.1-8.5 5.3-8.5 5.3s-2.5-.2-.4-1.8 12.1-8.3 22.4-12.6c10.3-4.4 15.2-6.3 20.1-6.9 4.9-.6 7.2-.3 10.1.5 1.4.4 3.7 1.6 3.7 1.6s-6.4-7.3-19.6-4.5c-13.3 2.7-20.7 6.6-26.5 9.8-5.7 3.2-10 6-11.2 7-1.2 1-3.3 3-3.9 3.5-.6.5-2 2.1-2 .8s1.1-5-2.3-7.6c-3.4-2.7-6.6-2.8-9.4-2.9-2.8-.1-5.2-.1-5.2-.1s-2.6-.4-.1-2.5c2.2-1.8 4.8-1.3 5.8-1.1 1.7.3 5-.9 5-.9s-5.3-1.1-5.7-1.6c-.3-.6.5-1.3 3.4-1.4 2.9-.1 5.7-1 5.7-1s-3.2-.3-4.4-.7c-1.2-.4.3-2.5 3.3-1.7 2.5.7 5.5-.2 5.5-.2s-3-.8-3.8-1.2c-.8-.3-1.9-3.1 1.7-1.9 3.4 1.2 6 .7 6 .7s-1.6-.8-3-1.9c-1.4-1.1 1.9-1 3.8-.4 3.1 1 3.4.5 5 .7 0 0-1.8-.5-3.9-2.4-.6-.6-.8-2.7 3.1-.8 4.1 2 5.6 1.1 5.6 1.1s-2.6-1.8-3.2-2.6c-.5-.8-.4-4.1 2.4-1.8 2.9 2.5 6.7 2.7 6.7 2.7s-3.2-2.6-4-3.4c-.8-.8-.3-3.8 3.8 0 2.7 2.6 6.3 2.3 6.3 2.3s-1.7-1.4-2.8-2.4c-2.2-1.8-1.2-2.2-1-2.5.2-.3 1-.4 2.7.5 5.1 2.8 5 2.6 7 3 0 0-2.8-3-3.4-3.7-.6-.8-.2-3.4 2.5-.5 3.3 3.6 5.6 3.6 5.6 3.6s-2-2.2-2.9-3.5c-.9-1.2-1.7-4.3 2.2-1.3 3.9 2.9 5 4.8 5 4.8l-.9-3.7s-2.4-5.2 1.7-1.7c4 3.5 6.8 6.8 6.8 6.8l-2.4-7.8s3.6 1.1 5.6 4.7c2.1 3.6 2.8 5 2.8 5s.8-2.7-.6-5.4-1.9-4.4.1-3.5c2 .9 3.4 2.9 3.8 4.8.5 1.9.6 3.3.6 4.6 0 1-.2 4.2.1 5.4 0 0 .7 2.1 1.6 3.2 1.2 1.8 3.3 3.7 3.3 3.7z"/><path id="XMLID_100_" class="st1" d="M53.2 150.3c.5 1.3 1.9 1.9 3.2 1.4 1.3-.5 1.9-1.9 1.4-3.2-.5-1.3-1.9-1.9-3.2-1.4-1.3.6-1.9 2-1.4 3.2z"/><path id="XMLID_99_" class="st1" d="M145.4 107.1s8.3 6 12 15.5c3.7 9.5 4.9 15.7 4.9 18.2s.6 4.2-1.7 6.1c-1.2 1-5 1.9-5 1.9s4.6.7 5.1 1.3c.5.6 4.2 10.9 4.2 10.9s-2.4.6-2.7-.6c-.7-2.3-3-9-3-9l-.5.1 2 7.6s-2.9.1-2.9-.7c-.1-2.2-1.1-7-1.1-7l-.4 6.2s-2.2.6-2.2-.8c-.1-2.7-.3-5.8-.3-5.8l-1.4 6.2s-1.6.7-1.7 0c-.3-3.2.8-6.8.8-6.8s-1.8 3.5-1.9 5.3c-.1 1.8-.1 2.3-1.1 2.1-1.1-.2-1-.4-1-2-.1-1.7 1.3-5.3 1.3-5.3s-1.4 1.5-2 3.6c-.5 2.1.5 4.4-1 4.2-1.5-.2-1.1-2.1-1.1-2.8 0-.7 1.6-5 1.6-5s-2.1 2.1-2.4 3.5c-.4 1.4-.2 3.4-.4 3.8-.2.4-3.3.3-3.3.3-.1-.9 2.2-5.9 2.9-6.8.7-.9 1.6-2.1 3.1-3 1.7-.9 3.3-1.3 4.9-1.5 1.6-.2 4.4-.3 5.4-.9 1-.6 2-1.8 2.1-2.8.1-1-.1-6.8-1.7-12.3-1.6-5.5-2.9-10.5-4.8-14.1-2.8-4.9-6.7-9.6-6.7-9.6z"/><g id="XMLID_135_"><path id="XMLID_164_" class="st1" d="M19.1 133.9c.4 2.5.3 5.1-.3 7.8-1 4.4-2.5 6.7-4.6 6.9-.6.1-1.6 0-2.8-.3L6 147.1c-1.5-.3-2.6-.8-3.1-1.2-1.4-1.2-1.6-3.9-.7-7.9.6-2.7 1.6-5.1 2.8-7.3l3.9.9-1 4.4.2.1c-1.7-.4-2.7.5-3.2 2.5-.5 2.1.2 3.3 2 3.8l5.7 1.3c1.8.4 3-.4 3.5-2.5s-.2-3.3-2.1-3.7l-.9-.2-.5 2.3-2-.5 1.5-6.7 7 1.5z"/><path id="XMLID_162_" class="st1" d="M16.2 108.1c-.2.9.2 1.6 1.3 2.1l6.3 3c1 .5 1.7.9 2 1.4.8.9 1 2.2.8 3.8-.2 1.3-.6 2.6-1.2 3.9-1.1 2.3-2.2 3.8-3.2 4.5-1.5 1-3.2 1.1-5.3.1l-6.2-3c-.5-.2-.9-.3-1.3-.3-.3.1-.7.3-1.1.7l-2-.9 3.2-6.8 2 .9c-.1.6 0 1 .3 1.4.2.2.6.5 1.2.8l5.9 2.8c1.7.8 3 .3 4-1.7.9-2 .6-3.4-1.1-4.2l-6.4-3.1c-.9-.4-1.6-.3-2.2.4l-2-.9 2.9-6 2.1 1.1z"/><path id="XMLID_160_" class="st1" d="M40.9 98.5L31 111.2l-1.8-1.4c.3-.8.1-1.6-.7-2.2l-6.3-4.9c-.5-.4-.8-.6-1.1-.6-.4 0-.8.1-1.2.4l-1.7-1.3 4.6-5.9 1.7 1.3c-.2.5-.2.9-.1 1.2.1.3.4.6.9 1l7.6 5.9 1.5-2c1-1.3 1.3-2.3 1-3-.2-.5-1-1.3-2.4-2.4l2.5-3.2 5.4 4.4z"/><path id="XMLID_158_" class="st1" d="M47.7 76.9l-3.2 2.7v.1c-.5-.6-1.1-.8-1.9-.5-.5.2-1.2.6-1.9 1.2l-2.1 1.8 2.7 3.1 5-4.3 1.4 1.7-5 4.3 2 2.3c.4.5.7.8 1 .9.4.1.8.1 1.3-.2l1.5 1.7-5.7 4.8-1.5-1.7c.5-.7.4-1.5-.3-2.3l-5-6.1c-.4-.4-.7-.7-1-.8-.3-.1-.7 0-1.2.2l-1.4-1.6 12.5-10.7 2.8 3.4z"/><path id="XMLID_155_" class="st1" d="M78.9 68.1c.5 1.1.7 2 .8 2.7.2 2-1.8 3.9-6 5.6-4.2 1.7-6.9 1.8-8.3.3-.4-.5-.9-1.3-1.4-2.5l-2-5c-.5-1.2-.8-2.1-.8-2.7-.1-2 1.9-3.9 6-5.6 4.1-1.7 6.9-1.8 8.2-.3.4.5.9 1.3 1.4 2.5l2.1 5zm-4.4 2l-2.2-5.4c-.7-1.7-2.1-2.2-4-1.4-2 .8-2.6 2.1-1.9 3.9l2.2 5.4c.7 1.7 2.1 2.2 4.1 1.4 1.9-.8 2.5-2.1 1.8-3.9z"/><path id="XMLID_153_" class="st1" d="M98.6 57.5l-4.1.8v.1c-.1-.8-.6-1.2-1.3-1.4-.5-.1-1.3-.1-2.3.1l-2.7.5.8 4.1 6.5-1.2.4 2.1-6.5 1.2.6 3c.1.6.3 1 .4 1.3.2.3.6.5 1.2.5l.4 2.2-7.4 1.2-.4-2.2c.8-.4 1.1-1.1.9-2.1l-1.5-7.9c-.1-.6-.3-1-.5-1.2-.2-.3-.6-.4-1.1-.5l-.4-2.1 16.2-3 .8 4.5z"/><path id="XMLID_151_" class="st1" d="M129.2 69.7c-2.4.6-5 .8-7.8.4-4.4-.6-6.9-1.9-7.3-3.9-.1-.6-.1-1.6 0-2.8l.7-5.5c.2-1.6.5-2.6.9-3.2 1.1-1.5 3.7-2 7.8-1.5 2.8.4 5.3 1 7.5 2.1l-.5 3.9-4.5-.6v.2c.2-1.7-.7-2.7-2.8-3-2.1-.3-3.3.5-3.6 2.4l-.7 5.8c-.2 1.9.7 2.9 2.8 3.2 2.1.3 3.3-.5 3.5-2.4l.1-.9-2.3-.3.3-2 6.8.9-.9 7.2z"/><path id="XMLID_149_" class="st1" d="M148.9 77.3L133 71.6l.8-2.1c.5 0 1-.1 1.3-.3.2-.2.4-.6.6-1.1l2.7-7.5c.2-.5.2-1 .2-1.3-.1-.3-.3-.6-.8-1l.7-2 15.9 5.7-1.5 4.2-4.2-1.5c.3-.7.1-1.4-.6-1.9-.4-.4-1.1-.7-2.1-1.1l-2.5-.9-1.4 4 6.5 2.3-.7 2-6.5-2.3-1.6 4.5 2.9 1c1 .4 1.8.5 2.3.4.7-.1 1.2-.7 1.5-1.6l4.2 1.5-1.8 4.7z"/><path id="XMLID_146_" class="st1" d="M168.5 82.8c-.6 1-1.2 1.7-1.8 2.2-1.5 1.3-4.2.8-8.1-1.6-3.8-2.4-5.5-4.6-5-6.5.1-.6.6-1.5 1.2-2.6l2.9-4.7c.7-1.1 1.3-1.8 1.8-2.2 1.6-1.3 4.3-.7 8.1 1.7s5.5 4.5 5 6.5c-.2.7-.6 1.5-1.2 2.6l-2.9 4.6zm-4.2-2.4l3.1-4.9c1-1.6.6-3-1.2-4.1-1.8-1.1-3.2-.9-4.2.7l-3.1 4.9c-1 1.6-.6 3 1.2 4.1 1.8 1.1 3.2.9 4.2-.7z"/><path id="XMLID_143_" class="st1" d="M181.4 102.1l-3.9-3.8c.1-.4.5-1 1.3-1.8 1-1 1.6-1.7 1.9-2 .5-.7.6-1.4.2-2-.2-.4-.7-1-1.4-1.7l-1.7-1.6-1.7 1.8c-.4.4-.7.8-.8 1.1-.1.4-.1.8.2 1.3l-1.6 1.6-5.3-5.2 1.6-1.6c.5.3.9.3 1.3.2.3-.1.7-.3 1.1-.8l5.5-5.6c.4-.4.7-.8.8-1.1.1-.3 0-.8-.3-1.3l1.5-1.5 6.8 6.6c1.6 1.6 2.7 3 3.2 4.1.8 1.8.5 3.3-.8 4.7-1.4 1.4-3.1 1.4-5 .1l-.4.5c.3.4.6.7.7 1 .2.4.3.8.4 1.1.1.5-.2 1.1-.9 1.8l-.3.3c-.8.8-1 1.6-.7 2.2l-1.7 1.6zm4.3-11.7c1.1-1.1.8-2.5-.9-4.2l-2-2-3.3 3.4 2 2c1.7 1.6 3.1 1.9 4.2.8z"/><path id="XMLID_141_" class="st1" d="M193.1 117.7c-2.1-1.4-3.9-3.3-5.4-5.7-2.4-3.8-3-6.4-1.8-8.1.4-.5 1.1-1.1 2.2-1.8l4.7-3c1.3-.9 2.3-1.3 3-1.4 1.9-.1 3.9 1.5 6.2 5 1.5 2.3 2.6 4.7 3.2 7.1l-3.3 2.1-2.5-3.8-.2.1c1.4-.9 1.6-2.3.4-4.1-1.2-1.8-2.5-2.2-4.1-1.2l-4.9 3.2c-1.6 1-1.8 2.4-.6 4.2 1.1 1.8 2.5 2.2 4.1 1.1l.8-.5-1.3-2 1.7-1.1 3.7 5.8-5.9 4.1z"/><path id="XMLID_139_" class="st1" d="M196.8 128.9l-3-6.8 2.1-.9c.3.4.7.7 1.1.7.3 0 .7-.1 1.2-.3l7.3-3.2c.5-.2.9-.5 1.1-.7.2-.3.3-.7.2-1.3l2-.9 3 6.8-2 .9c-.3-.4-.7-.7-1.1-.7-.3 0-.7.1-1.3.3l-7.3 3.1c-.5.2-.9.5-1.1.7-.2.3-.3.7-.2 1.2l-2 1.1z"/><path id="XMLID_136_" class="st1" d="M202.5 149.2l-1.8-7.4 2.2-.5c.4.8.9 1.1 1.6.9.1 0 .6-.3 1.2-.7l-1.4-5.6c-.8-.1-1.3-.1-1.6 0-.6.2-.9.7-.8 1.6l-2.2.5-1.6-6.6 2.2-.5c.4.6 1.2 1 2.3 1l12.5.5 1.9 7.6-11 6.7c-.8.5-1.2 1.1-1.3 1.8l-2.2.7zm4.6-8.7l6.2-3.4-.2-1-7.1-.1 1.1 4.5z"/></g></g></svg>