<?xml version="1.0" encoding="utf-8"?>
<!-- Generator: Adobe Illustrator 19.0.0, SVG Export Plug-In . SVG Version: 6.00 Build 0)  -->
<svg version="1.1" id="Layer_1" xmlns="http://www.w3.org/2000/svg" xmlns:xlink="http://www.w3.org/1999/xlink" x="0px" y="0px"
	 viewBox="0 0 222.9 300" style="enable-background:new 0 0 222.9 300;" xml:space="preserve">
<style type="text/css">
	.st0{display:none;opacity:0.5;}
	.st1{fill:#D0043C;}
	.st2{fill:#FFFFF3;}
</style>
<path id="XMLID_59_" class="st0" d="M111,129.1c-11.6,0-20.9,9.4-20.9,20.9s9.4,20.9,20.9,20.9s20.9-9.4,20.9-20.9
	S122.5,129.1,111,129.1z M123,152h-9v10h-5v-10h-9v-6h9v-10h5v10h9V152z"/>
<g id="XMLID_63_">
	<path id="XMLID_132_" class="st1" d="M194,162.5c0,46.7-37.8,84.5-84.5,84.5C62.8,247,25,209.1,25,162.5
		c0-46.7,37.8-84.5,84.5-84.5C156.2,77.9,194,115.8,194,162.5z"/>
	<g id="XMLID_201_">
		<path id="XMLID_215_" class="st2" d="M84.8,220.8c0,1.3-0.4,2.2-1.2,2.9c-0.7,0.7-1.8,1-3.1,1c-1.7,0-3.2-0.5-4.3-1.4v-2.9h2.5
			c0,1.4,0.6,2.2,1.8,2.2c0.5,0,0.9-0.2,1.2-0.5c0.3-0.3,0.5-0.7,0.5-1.2c0-0.8-0.5-1.4-1.6-1.9c-0.3-0.1-1.3-0.6-2.9-1.2
			c-1-0.6-1.6-1.6-1.6-2.8c0-1.2,0.4-2.1,1.3-2.8c0.8-0.6,1.8-0.9,3-0.9c1.5,0,2.9,0.4,4.1,1.3v2.8h-2.4c0-0.6-0.1-1.1-0.4-1.4
			c-0.3-0.4-0.7-0.6-1.3-0.6c-0.5,0-0.9,0.1-1.2,0.4c-0.4,0.3-0.5,0.7-0.5,1.1c0,0.5,0.4,1,1.1,1.4c0.2,0.1,1,0.4,2.3,1
			c1,0.4,1.7,0.8,2,1.2C84.6,219,84.8,219.8,84.8,220.8z"/>
		<path id="XMLID_212_" class="st2" d="M95.6,220.2c0,1.7-0.3,2.8-0.8,3.5c-0.6,0.7-1.7,1-3.4,1c-2.3,0-3.7-0.8-4.1-2.3
			c-0.1-0.4-0.2-1.2-0.2-2.2v-4.4c0-1.1,0-1.8,0.1-2.2c0.4-1.5,1.7-2.3,4.1-2.3c2.4,0,3.7,0.8,4.1,2.4c0.1,0.4,0.1,1.2,0.1,2.2
			V220.2z M93.1,220.4v-4.6c0-1.5-0.6-2.2-1.7-2.2c-1.1,0-1.7,0.7-1.7,2.2v4.6c0,1.5,0.6,2.2,1.7,2.2
			C92.5,222.6,93.1,221.9,93.1,220.4z"/>
		<path id="XMLID_210_" class="st2" d="M106.4,223.8c-1.3,0.6-2.7,0.9-4.1,0.9c-2.4,0-3.7-0.8-4.1-2.3c-0.1-0.5-0.2-1.2-0.2-2.2
			v-4.4c0-0.9,0-1.6,0.1-2c0.3-1.7,1.7-2.5,4.1-2.5c1.5,0,2.8,0.3,4.1,0.9v3.4h-2.4c0-1.4-0.6-2.1-1.7-2.1c-1.1,0-1.7,0.7-1.7,2.2
			v4.6c0,1.5,0.6,2.2,1.7,2.2c0.8,0,1.3-0.3,1.5-1c0.1-0.3,0.2-1,0.2-2h2.4V223.8z"/>
		<path id="XMLID_208_" class="st2" d="M113,224.5H109v-1.8c0.5-0.2,0.7-0.7,0.7-1.5v-6.3c0-0.4,0-0.7-0.1-0.9
			c-0.1-0.3-0.3-0.5-0.6-0.6v-1.7h3.9v1.7c-0.4,0.2-0.7,0.7-0.7,1.5v6.4c0,0.9,0.2,1.4,0.7,1.5V224.5z"/>
		<path id="XMLID_206_" class="st2" d="M124.3,224.5h-8.9v-1.8c0.5-0.2,0.7-0.7,0.7-1.6v-6.2c0-0.5,0-0.8-0.1-0.9
			c-0.1-0.3-0.3-0.5-0.6-0.6v-1.7h8.9v3.6h-2.4c0-0.2-0.1-0.4-0.1-0.5c-0.1-0.4-0.3-0.6-0.4-0.7c-0.3-0.2-0.8-0.3-1.5-0.3h-0.6
			c0,0-0.1,0-0.1,0c-0.1,0-0.2,0-0.2,0h-0.3v3.4h3.7v1.7h-3.7v3.8h1.6c0.7,0,1.1-0.2,1.4-0.5c0.2-0.3,0.3-0.7,0.3-1.4h2.4V224.5z"/>
		<path id="XMLID_204_" class="st2" d="M136.1,216.5h-1.9c0-1.1,0-1.8-0.1-2c-0.2-0.6-0.8-0.8-1.7-0.8v7.5c0,0.5,0,0.8,0.1,0.9
			c0.1,0.3,0.3,0.6,0.6,0.7v1.8h-3.9v-1.8c0.5-0.2,0.7-0.7,0.7-1.5v-7.6c-0.9,0-1.4,0.3-1.6,0.9c-0.1,0.2-0.1,0.9-0.1,2h-2v-4.9h10
			V216.5z"/>
		<path id="XMLID_202_" class="st2" d="M146.6,213.3c-0.2,0.1-0.4,0.3-0.7,0.8l-2.6,5.2c0,0.3,0,0.9,0,1.8c0,0.8,0.2,1.4,0.7,1.5
			v1.8H140v-1.8c0.5-0.2,0.7-0.7,0.7-1.5v-0.9c0,0,0-0.1,0-0.2s0-0.2,0-0.3v-0.3l-2.6-5.4c-0.2-0.5-0.5-0.7-0.7-0.9v-1.7h3.4
			c0,1.3,0.1,2.2,0.2,2.6c0,0.1,0.4,1,1.3,2.7l0.9-1.6c0.3-0.6,0.5-1.2,0.6-1.8c0.1-0.4,0.1-1.1,0-1.9h2.9V213.3z"/>
	</g>
	<path id="XMLID_123_" class="st1" d="M31.2,168.8c0,0-5.9-0.6-8.9-0.6c-3.3,0-6.1,0.3-8.8,1.2c-1.9,0.7-3.8,1.8-5.3,3.4
		c-1.5,1.6-2.5,3.6-3,5.7c-0.4,1.9-0.5,3.6-0.5,6v9.8c0,2.7,0.1,4.5,0.6,6.7c0.9,3.5,3.7,6.4,6.8,7.8c3.1,1.4,6.4,1.9,10.2,1.9h0
		c2.3,0,4.6-0.2,6.7-0.6h41.3h28.5l0,0h32.1v0h24.6v0h23v0h11.6v0h23v-14.8l-1.9-0.6v-0.6l5.9-9.7l3-0.9v-14.7H31.2z"/>
	<path id="XMLID_197_" class="st2" d="M109.4,86.4c-41.9,0-75.9,34-75.9,75.9c0,2.2,0.1,4.3,0.3,6.5h3c-0.2-2.1-0.3-4.3-0.3-6.5
		c0-20.1,8.2-38.4,21.4-51.6c13.2-13.2,31.4-21.4,51.6-21.4c20.1,0,38.4,8.2,51.6,21.4c13.2,13.2,21.4,31.4,21.4,51.6
		c0,2.2-0.1,4.3-0.3,6.5h3c0.2-2.1,0.3-4.3,0.3-6.5C185.4,120.4,151.4,86.4,109.4,86.4z M161,213.9c-13.2,13.2-31.4,21.4-51.6,21.4
		c-20.1,0-38.4-8.2-51.6-21.4c-1.2-1.2-2.4-2.5-3.5-3.8h-3.9c13.9,17.2,35.2,28.2,59,28.2c23.8,0,45.1-11,59-28.2h-3.9
		C163.4,211.4,162.2,212.7,161,213.9z"/>
	<g id="XMLID_180_">
		<path id="XMLID_195_" class="st2" d="M33.2,202.4c-3.3,1.4-6.9,2.1-10.9,2.1c-6.4,0-10-1.7-11-5.1c-0.3-0.9-0.4-2.6-0.4-5v-9.8
			c0-2.1,0.1-3.7,0.3-4.6c0.5-2.3,2-3.8,4.4-4.7c1.6-0.6,3.8-0.8,6.7-0.8c3.8,0,7.5,0.7,10.9,2v7.5h-6.4c0-3.1-1.5-4.7-4.5-4.7
			c-1.7,0-2.9,0.4-3.5,1.2c-0.7,0.8-1,2.1-1,3.8v10.3c0,3.3,1.5,5,4.6,5c2,0,3.3-0.6,3.9-1.9c0.4-0.8,0.6-2.3,0.6-4.6h6.4V202.4z"/>
		<path id="XMLID_192_" class="st2" d="M64.2,203.8H53.4v-3.9c1.2-0.4,1.8-1.1,1.8-2.3c0-0.4-0.2-1.2-0.5-2.4h-8.2
			c-0.4,1.5-0.5,2.4-0.5,2.7c0,1.2,0.6,1.8,1.9,2v3.9h-9.6v-4c1-0.4,1.8-1.6,2.2-3.5l5-21.4h11.2l5.5,21.8c0.4,1.6,1.1,2.6,2.1,3
			V203.8z M53.7,192.2L51.1,180h-1.5l-2.6,12.2H53.7z"/>
		<path id="XMLID_190_" class="st2" d="M94.7,178.9c-0.9,0.3-1.4,0.8-1.7,1.5c-0.2,0.4-0.2,1.2-0.2,2.3v21.2h-6.3l-8.9-16.7
			l-1.4,0.2v9.1c0,1.9,0.6,3,1.9,3.4v4h-9.9v-4c0.8-0.3,1.4-0.8,1.6-1.4c0.2-0.4,0.2-1.1,0.2-2.1v-14.5c0-1.6-0.6-2.7-1.9-3.1V175
			h8.3l8.8,16.5l1.4-0.2v-9c0-1.9-0.6-3.1-1.9-3.5V175h10V178.9z"/>
		<path id="XMLID_188_" class="st2" d="M126.8,178.9c-0.9,0.3-1.4,0.8-1.7,1.5c-0.2,0.4-0.2,1.2-0.2,2.3v21.2h-6.3l-8.9-16.7
			l-1.4,0.2v9.1c0,1.9,0.6,3,1.9,3.4v4h-9.9v-4c0.8-0.3,1.4-0.8,1.6-1.4c0.2-0.4,0.2-1.1,0.2-2.1v-14.5c0-1.6-0.6-2.7-1.9-3.1V175
			h8.3l8.8,16.5l1.4-0.2v-9c0-1.9-0.6-3.1-1.9-3.5V175h10V178.9z"/>
		<path id="XMLID_186_" class="st2" d="M156.4,203.8h-23.9v-4c1.2-0.4,1.9-1.5,1.9-3.4v-14.2c0-1-0.1-1.7-0.3-2.1
			c-0.3-0.6-0.8-1-1.6-1.3V175h23.9v8h-6.4c0-1.4-0.5-2.3-1.5-2.8c-0.7-0.4-1.9-0.6-3.5-0.6h-3.8v7.5h9.9v3.8h-9.9v8.5h4.3
			c1.6,0,2.8-0.3,3.4-0.9c0.7-0.6,1-1.8,1-3.4h6.4V203.8z"/>
		<path id="XMLID_183_" class="st2" d="M187.2,203.8h-7.7c-0.4-1-0.5-2.2-0.5-3.6c0-0.4,0-1.1,0.1-1.9c0-0.8,0.1-1.5,0.1-1.9
			c0-1.7-0.4-2.9-1.2-3.6c-0.8-0.7-2.1-1-3.9-1h-3.3v4.4c0,2,0.6,3.2,1.8,3.6v4h-10.5v-4c0.8-0.2,1.3-0.7,1.6-1.4
			c0.2-0.4,0.2-1.1,0.2-2.1v-13.9c0-1-0.1-1.8-0.2-2.2c-0.2-0.6-0.8-1.1-1.6-1.4V175h13.4c3.4,0,6,0.5,7.7,1.4
			c2.3,1.2,3.4,3.5,3.4,6.6c0,3.5-1.6,5.7-4.9,6.4l0,1.2c0.8,0.1,1.4,0.3,2,0.5c1.4,0.5,2.1,1.9,2.1,4.1v0.6c0,0.3,0,0.5,0,0.6
			c0,1.9,0.5,3,1.5,3.4V203.8z M179.7,183.7c0-2.8-1.7-4.2-5-4.2h-4.1v8.4h3.9C178,187.8,179.7,186.4,179.7,183.7z"/>
		<path id="XMLID_181_" class="st2" d="M214.1,178.9c-0.6,0.2-1.2,0.8-1.9,1.9l-7,11.7v2c0,0.3,0,0.7,0,1.2c0,0.4,0,0.7,0,0.9
			c0,0.9,0.1,1.6,0.3,2.1c0.3,0.6,0.8,1.1,1.6,1.3v4h-10.6v-4c1.3-0.4,1.9-1.5,1.9-3.3v-1.9c0-0.3,0-0.6,0-1.1c0-0.4,0-0.6,0-0.8
			l-7.1-12c-0.6-1-1.2-1.7-1.9-1.9V175h9.1c0,2.5,0,4,0.1,4.6c0.1,0.9,0.4,1.8,0.9,2.6c0.6,1,1.5,2.5,2.8,4.5l2.5-4.1
			c0.7-1.2,1.1-2.4,1.3-3.7c0.1-0.9,0.2-2.2,0.1-4h7.8V178.9z"/>
	</g>
	<path id="XMLID_111_" class="st1" d="M172.8,162.7c-0.1-2.2-0.8-4.8-1.6-7.2c-0.8-2.4-1.7-4.5-2-5.4c-0.6-1.5-0.8-2.5-1.5-4.5
		c-0.1-0.1-0.4-1.1-0.6-2.3c-0.4-1.8-1-4.3-1.4-6.6c-0.3-1.3-0.5-2.6-0.6-3.6c0,0,0.1,0,0.1,0c0.7,0.2,1.6,0.5,2.5,0.6
		c0.2,0,0.4,0,0.6,0c0.5,0,1,0,1.7-0.5c0.7-0.4,1.1-1.3,1-1.9c0-0.8-0.3-1.2-0.4-1.4c-0.2-0.3-0.3-0.4-0.3-0.5l-0.3-0.3
		c0,0-2-1.6-4.2-3.6c-2.2-2-4.6-4.6-5.2-5.7c-2-3.6-9.5-14.8-20.5-19.7c-9.1-3.9-18.2-4.2-21-4.2c-0.1,0-0.1,0-0.2,0c0,0,0,0,0,0
		c-0.1-0.1-0.1-0.1-0.2-0.2c0,0,0,0,0,0c0-0.1,0-0.2,0-0.4c0-0.2,0-0.4,0-0.5c0-0.1,0-0.2,0-0.2l-1.1-2.2l-1.5-0.7
		c-0.1-0.5-0.2-1-0.4-1.6c-0.4-0.9-0.9-1.1-1.3-1.3c-0.2-0.1-0.5-0.2-0.7-0.3l-0.6-1.4l-1.5-1.2c0,0-0.1,0-0.3-0.1
		c-0.1,0-0.2,0-0.3-0.1c0-0.1-0.1-0.3-0.1-0.5c0-0.1,0-0.7-0.2-1.3c-0.1-0.4-0.2-0.8-0.6-1.3c-0.4-0.5-1.3-1-2-0.9c0,0,0,0,0,0h0
		c-0.7,0-1,0.2-1.4,0.3c-2.4,1-8,4.5-11.8,8.3c-3.7,3.7-8,10.9-9.3,13.2c-0.6,0.3-1.6,0.8-3.1,1.7c-2.8,1.7-7.7,5.1-15.8,11.6
		c-17.1,13.6-22.8,29.3-23.3,30.5c-0.1,0.2-0.7,1.8-1.3,3.6c-0.7,2-1.5,4.7-1.7,6.6c-0.1,2,0.3,3.3,0.9,4c0.6,0.7,2.3,1.3,3.5,1.3
		c1.7,0,3.9-2,5.8-2.7c0,0-0.9,0.8-1.3,1.4c-0.4,0.6-0.8,0.9-1,2.1c0,0.2,0,0.4,0,0.6c0,0.7,0.2,1.6,0.7,2.2c0.5,0.6,1,1.1,1.6,1.4
		c0.9,0.5,1.9,0.8,3.1,0.8c1.3,0,2.7-0.3,4.3-0.9c3.3-1.2,9-5,12.4-7.3c3.2-2.2,7.3-4.9,8.8-5.6c0.2-0.1,0.4-0.1,0.7-0.1
		c0.7,0,2.3,0.6,4.7,1c2.7,0.4,7.3,2.2,9.4,3.5c1.2,0.7,2.2,1,3.2,1c0.7,0,1.5-0.2,2.1-0.7c0.6-0.5,1-1.3,1-2.1c0-0.2,0-0.5-0.1-0.7
		c-0.1-0.5-0.3-1-0.6-1.7c-0.4-0.9-0.8-1.9-1.2-2.9c0.6-0.1,1.2-0.1,1.6-0.2c1.8-0.3,2.7-1.8,2.7-3.3c0.1-1.1-0.7-2.4-1.9-2.8
		c0,0,0,0-0.1-0.1c-0.3-0.2-0.9-0.8-1.3-1.3c0,0-0.1-0.1-0.1-0.1c0.8-0.6,2.2-1.5,3.6-2.3c2.2-1.2,4.7-2.5,6.4-3.1
		c3.6-1.3,10.7-4,12.8-4.8c1.8,0.4,7.1,1.7,9.2,2.3c2.8,0.8,12.2,2.4,12.3,2.4l2.1-3c0,0-0.4-0.7-0.9-1.6c0.2,0.2,0.3,0.3,0.5,0.5
		c0.9,0.9,1.7,2.8,1.7,4.1c0,0.3,0,0.6-0.1,0.8c-0.1,0.5-0.8,1.6-2.2,3.2c-1.3,1.7-3.2,4-5.6,7.4c-5,7.2-5.5,17.2-5.5,17.2
		s4-1,5.4-2.5c0.1-0.1,0.4-0.3,0.6-0.5c0.1,0,0.2-0.1,0.2-0.1c0.2,0,0.4,0,0.7,0c1.1,0,2.9-0.1,4.5-1.6c0.2-0.2,0.3-0.2,0.7-0.2
		c0.3,0,0.7,0.1,1.3,0.1h0c0.3,0.1,1.3,0.6,2.8,0.7c0.6,0,1.3-0.1,1.9-0.4c0.7-0.3,1.3-0.7,1.7-1.2c0.2,0.3,0.5,0.5,0.8,0.8
		c1,0.7,1.8,0.8,2.6,1c0.8,0.1,1.6,0.3,2.5,0.5c0.7,0.2,0.7,0.3,0.9,0.6c0.1,0.1,0.2,0.3,0.3,0.5c0.2,0.2,0.3,0.7,1,1.1
		c0.5,0.3,1.1,0.4,1.5,0.4c0.6,0,0.9-0.1,1.1-0.1c0.2,0.3,0.7,0.9,1.1,1.5c0.8,1.1,1.7,1.6,2.4,1.9c0.7,0.4,3.2,1.8,3.2,1.8l0.6-2.3
		c0.1-0.2,1.2-2.8,1.2-6.6C172.8,162.9,172.8,162.8,172.8,162.7z"/>
	<path id="XMLID_69_" class="st2" d="M167.4,150.3c-0.7-1.7-0.8-2.7-1.5-4.5c-0.7-1.7-3.3-13.9-2.9-15.1c0.5-1.1,3.1,0.4,4.9,0.6
		c1.8,0.2,0.8-1,0.8-1s-8.2-6.6-9.9-9.9c-1.7-3.3-9.3-14.3-19.5-18.8c-10.2-4.5-20.9-4-20.9-4s-1.2-0.6-1.5-1.5
		c-0.4-0.9-0.1-2.2-0.1-2.2l-2.5-1.1c0,0-0.3-1.8-0.5-2.2c-0.2-0.5-1.6-0.6-1.6-0.6l-1-2.4c0,0-0.7-0.1-1.5-0.5
		c-0.8-0.3-0.4-0.8-0.7-1.4c-0.3-0.7,0-2.3-0.9-2.3c-0.9,0-7.7,4.1-11.8,8.1c-4,4-9.3,13.4-9.3,13.4s-3,0.1-19.1,13.2
		c-21.5,17.5-26.1,38.3-25.9,40.3c0.2,1.8,1.8,2.3,3.2,2.2c0.9-0.1,2.9-1.5,5.6-1.9c3-0.5,6,0.8,8.2-0.1c2.7-1,5.3,0.6-1.2,2.7
		c-3,1-5.1-0.8-5.1-0.8s-2.3,2-2.4,3c-0.1,1,0.3,1.6,1.3,2.3c1.1,0.6,2.8,0.7,5.6-0.3c2.8-1,8.6-4.8,11.9-7.1c3.2-2.2,7.2-4.9,9-5.8
		c1.8-0.9,3.6,0.2,6.6,0.7c3,0.5,7.6,2.3,10.1,3.7c2.4,1.4,3.6,0.6,3.4-0.3c-0.2-0.9-2.9-6.9-2.9-6.9s3.1-0.2,4.3-0.4
		c1.1-0.2,1.5-1.8,0.4-2.3c-1.1-0.5-3.3-2.9-3.1-3.8c0.2-0.9,7.6-5.2,11.8-6.7c4.2-1.6,13.4-5,13.4-5s7.3,1.8,9.8,2.5
		c2.6,0.7,12.1,2.4,12.1,2.4s-3.5-6-2.5-6.5c1-0.5,3.4,1.2,5.2,2.9c1.8,1.7,2.7,4.8,2.1,6.9c-0.6,2.1-3.4,4.6-8,11.3
		c-4.7,6.7-5,13.1-5,13.1s1.1,0,1.8-0.9c0.7-0.8,2-1.3,2.4-1.3c0.4,0.1,2.6,0.2,3.8-1c1.2-1.1,2.5-0.7,3.5-0.7
		c0.9,0,2.2,1.1,3.9,0.4c1.7-0.7,2.5-3.1,2.5-3.1s1.3,2.4,2,3.1c0.8,0.6,2.4,0.5,4.5,1.1c2.1,0.6,2.2,2.1,2.7,2.4
		c0.5,0.3,1.2-0.1,2,0c0.8,0.1,1.6,1.4,2.3,2.4c0.7,1.1,2.7,1.7,2.7,1.7s1.1-2.6,1-6C170.8,158.7,168.1,152,167.4,150.3z"/>
	<path id="XMLID_110_" class="st1" d="M92.8,149.6c0,0,1.8,3.7,1.9,4.2c0.2,0.5,0.9,1.9-3.5,0.1c-4.4-1.9-7.1-2.2-7.1-2.2
		s-2.8-1-0.6-2.4c2.2-1.4,3.2-1.7,3.2-1.7L92.8,149.6z"/>
	<path id="XMLID_109_" class="st1" d="M58.9,143.4c0,0-0.9,0.9,0.1,2.1c1.1,1.2,3.2,1.5,3.7,2.5c0.5,1.1,0.3,3.6-0.5,4
		c-0.8,0.4-2.6,1.7-2.6,1.7s-0.6,1.8,2.6,0.9c3.2-0.9,4.8,0.4,5.3,0.9c0.5,0.5,3.2,1.5,4.7-3.6c1.5-5.1,0.5-7.8-3-9
		c-3.4-1.2-4.4-0.4-6.1-0.2C61.4,143,58.9,143.4,58.9,143.4z"/>
	<path id="XMLID_108_" class="st1" d="M71.7,138.2c0,0-1.9-0.7-4.4-0.7c-2.5,0-4.8,0.2-5.3,0.7c-0.5,0.5-2.2,2.4,0.4,2.3
		c2.6-0.1,5.4-0.1,7.1,0.1c1.7,0.2,4.4,0.9,5,2.9c0.6,2,0.5,4.1,0.8,5.1c0.3,0.9,2,1.2,2-1.4c0-2.5-0.7-5.3-2.3-7
		C73.5,138.3,71.7,138.2,71.7,138.2z"/>
	<path id="XMLID_107_" class="st2" d="M62.5,134.4c0,0,10.2,0.2,13.7,2.9c3.9,2.9,3.9,6.1,3.3,9c-0.6,2.9-2.8,4.6-2.8,4.6
		s-2.3,1.8-1.2-1.9c1-3.7,1.3-6.1-0.1-8.2c-1.5-2.1-5.6-3.2-8.6-3.6c-2-0.3-4.7-0.8-6.4-0.6c-1.1,0.2-1.8,0.1-1.9-0.7
		C58.4,134.4,62.5,134.4,62.5,134.4z"/>
	<path id="XMLID_106_" class="st1" d="M106.7,85.7c0,0-4.6,2.4-9.2,7.7c-4.6,5.3-6.7,10.1-6.7,10.1l3-0.8c0,0,2.5-5.2,8.1-9.8
		c5.6-4.5,5.7-4.6,5.7-4.6L106.7,85.7z"/>
	<path id="XMLID_105_" class="st1" d="M110,91.2c0,0-0.1-1-0.5-1.3c-0.4-0.4-0.8-0.4-0.8-0.4s-6.6,4.7-9.1,8
		c-2.5,3.3-2.7,3.6-1.8,4.1c0.9,0.5,1.3-0.2,2-1.1c0.8-0.9,3.4-3.9,6-5.9C108.5,92.5,110,91.2,110,91.2z"/>
	<path id="XMLID_104_" class="st1" d="M111.9,92.9c0,0-0.2,0.2-0.7-0.3c-0.5-0.5-0.9-0.2-1.8,0.4c-0.9,0.6-3.5,3.2-4.2,3.9
		c-0.7,0.8-2.9,3.4-2.9,3.4s1.8,0.6,2.9-0.8c1.1-1.4,2.3-2.4,3-3.2C108.9,95.6,111.9,92.9,111.9,92.9z"/>
	<path id="XMLID_103_" class="st1" d="M113.7,95.4c0,0,0.6-1.2-0.4-1.5c-1-0.3-1.2,0.3-1.4,0.5c-0.2,0.2-3.8,3.5-4.3,4.3
		c-0.5,0.9,0.8,1.2,1.7,0.5C110.2,98.6,113.7,95.4,113.7,95.4z"/>
	<polygon id="XMLID_102_" class="st1" points="114.3,96.8 112.5,99.2 115.6,98.7 	"/>
	<path id="XMLID_101_" class="st1" d="M146.8,127.4c0,0,0-0.1-0.1-0.3c-0.2-0.7-0.8-2.6,0.2-3.1c1.2-0.7,2.5,0.5,2.7,1.9
		c0.2,1.4,0,3.3,0.3,4.1c0.2,0.8,1,2.4-0.1,2.5c-1.1,0.1-1.5-1.5-3.3-2.8c-1.8-1.3-7.5-4.6-17.6-1.5c-10.1,3.2-20.8,6.5-31.8,13
		c-6.9,4.1-8.5,5.3-8.5,5.3s-2.5-0.2-0.4-1.8c2.1-1.6,12.1-8.3,22.4-12.6c10.3-4.4,15.2-6.3,20.1-6.9c4.9-0.6,7.2-0.3,10.1,0.5
		c1.4,0.4,3.7,1.6,3.7,1.6s-6.4-7.3-19.6-4.5c-13.3,2.7-20.7,6.6-26.5,9.8c-5.7,3.2-10,6-11.2,7c-1.2,1-3.3,3-3.9,3.5
		c-0.6,0.5-2,2.1-2,0.8c0-1.3,1.1-5-2.3-7.6c-3.4-2.7-6.6-2.8-9.4-2.9c-2.8-0.1-5.2-0.1-5.2-0.1s-2.6-0.4-0.1-2.5
		c2.2-1.8,4.8-1.3,5.8-1.1c1.7,0.3,5-0.9,5-0.9s-5.3-1.1-5.7-1.6c-0.3-0.6,0.5-1.3,3.4-1.4c2.9-0.1,5.7-1,5.7-1s-3.2-0.3-4.4-0.7
		c-1.2-0.4,0.3-2.5,3.3-1.7c2.5,0.7,5.5-0.2,5.5-0.2s-3-0.8-3.8-1.2c-0.8-0.3-1.9-3.1,1.7-1.9c3.4,1.2,6,0.7,6,0.7s-1.6-0.8-3-1.9
		c-1.4-1.1,1.9-1,3.8-0.4c3.1,1,3.4,0.5,5,0.7c0,0-1.8-0.5-3.9-2.4c-0.6-0.6-0.8-2.7,3.1-0.8c4.1,2,5.6,1.1,5.6,1.1
		s-2.6-1.8-3.2-2.6c-0.5-0.8-0.4-4.1,2.4-1.8c2.9,2.5,6.7,2.7,6.7,2.7s-3.2-2.6-4-3.4c-0.8-0.8-0.3-3.8,3.8,0
		c2.7,2.6,6.3,2.3,6.3,2.3s-1.7-1.4-2.8-2.4c-2.2-1.8-1.2-2.2-1-2.5c0.2-0.3,1-0.4,2.7,0.5c5.1,2.8,5,2.6,7,3c0,0-2.8-3-3.4-3.7
		c-0.6-0.8-0.2-3.4,2.5-0.5c3.3,3.6,5.6,3.6,5.6,3.6s-2-2.2-2.9-3.5c-0.9-1.2-1.7-4.3,2.2-1.3c3.9,2.9,5,4.8,5,4.8l-0.9-3.7
		c0,0-2.4-5.2,1.7-1.7c4,3.5,6.8,6.8,6.8,6.8l-2.4-7.8c0,0,3.6,1.1,5.6,4.7c2.1,3.6,2.8,5,2.8,5s0.8-2.7-0.6-5.4
		c-1.4-2.7-1.9-4.4,0.1-3.5c2,0.9,3.4,2.9,3.8,4.8c0.5,1.9,0.6,3.3,0.6,4.6c0,1-0.2,4.2,0.1,5.4c0,0,0.7,2.1,1.6,3.2
		C144.7,125.5,146.8,127.4,146.8,127.4z"/>
	<path id="XMLID_100_" class="st1" d="M53.2,150.3c0.5,1.3,1.9,1.9,3.2,1.4c1.3-0.5,1.9-1.9,1.4-3.2c-0.5-1.3-1.9-1.9-3.2-1.4
		C53.3,147.7,52.7,149.1,53.2,150.3z"/>
	<path id="XMLID_99_" class="st1" d="M145.4,107.1c0,0,8.3,6,12,15.5c3.7,9.5,4.9,15.7,4.9,18.2c0,2.5,0.6,4.2-1.7,6.1
		c-1.2,1-5,1.9-5,1.9s4.6,0.7,5.1,1.3c0.5,0.6,4.2,10.9,4.2,10.9s-2.4,0.6-2.7-0.6c-0.7-2.3-3-9-3-9l-0.5,0.1l2,7.6
		c0,0-2.9,0.1-2.9-0.7c-0.1-2.2-1.1-7-1.1-7l-0.4,6.2c0,0-2.2,0.6-2.2-0.8c-0.1-2.7-0.3-5.8-0.3-5.8l-1.4,6.2c0,0-1.6,0.7-1.7,0
		c-0.3-3.2,0.8-6.8,0.8-6.8s-1.8,3.5-1.9,5.3c-0.1,1.8-0.1,2.3-1.1,2.1c-1.1-0.2-1-0.4-1-2c-0.1-1.7,1.3-5.3,1.3-5.3s-1.4,1.5-2,3.6
		c-0.5,2.1,0.5,4.4-1,4.2c-1.5-0.2-1.1-2.1-1.1-2.8c0-0.7,1.6-5,1.6-5s-2.1,2.1-2.4,3.5c-0.4,1.4-0.2,3.4-0.4,3.8
		c-0.2,0.4-3.3,0.3-3.3,0.3c-0.1-0.9,2.2-5.9,2.9-6.8c0.7-0.9,1.6-2.1,3.1-3c1.7-0.9,3.3-1.3,4.9-1.5c1.6-0.2,4.4-0.3,5.4-0.9
		c1-0.6,2-1.8,2.1-2.8c0.1-1-0.1-6.8-1.7-12.3c-1.6-5.5-2.9-10.5-4.8-14.1C149.3,111.8,145.4,107.1,145.4,107.1z"/>
	<g id="XMLID_135_">
		<path id="XMLID_164_" class="st1" d="M19.1,133.9c0.4,2.5,0.3,5.1-0.3,7.8c-1,4.4-2.5,6.7-4.6,6.9c-0.6,0.1-1.6,0-2.8-0.3L6,147.1
			c-1.5-0.3-2.6-0.8-3.1-1.2c-1.4-1.2-1.6-3.9-0.7-7.9c0.6-2.7,1.6-5.1,2.8-7.3l3.9,0.9l-1,4.4l0.2,0.1c-1.7-0.4-2.7,0.5-3.2,2.5
			c-0.5,2.1,0.2,3.3,2,3.8l5.7,1.3c1.8,0.4,3-0.4,3.5-2.5c0.5-2.1-0.2-3.3-2.1-3.7l-0.9-0.2l-0.5,2.3l-2-0.5l1.5-6.7L19.1,133.9z"/>
		<path id="XMLID_162_" class="st1" d="M16.2,108.1c-0.2,0.9,0.2,1.6,1.3,2.1l6.3,3c1,0.5,1.7,0.9,2,1.4c0.8,0.9,1,2.2,0.8,3.8
			c-0.2,1.3-0.6,2.6-1.2,3.9c-1.1,2.3-2.2,3.8-3.2,4.5c-1.5,1-3.2,1.1-5.3,0.1l-6.2-3c-0.5-0.2-0.9-0.3-1.3-0.3
			c-0.3,0.1-0.7,0.3-1.1,0.7l-2-0.9l3.2-6.8l2,0.9c-0.1,0.6,0,1,0.3,1.4c0.2,0.2,0.6,0.5,1.2,0.8l5.9,2.8c1.7,0.8,3,0.3,4-1.7
			c0.9-2,0.6-3.4-1.1-4.2l-6.4-3.1c-0.9-0.4-1.6-0.3-2.2,0.4l-2-0.9l2.9-6L16.2,108.1z"/>
		<path id="XMLID_160_" class="st1" d="M40.9,98.5L31,111.2l-1.8-1.4c0.3-0.8,0.1-1.6-0.7-2.2l-6.3-4.9c-0.5-0.4-0.8-0.6-1.1-0.6
			c-0.4,0-0.8,0.1-1.2,0.4l-1.7-1.3l4.6-5.9l1.7,1.3c-0.2,0.5-0.2,0.9-0.1,1.2c0.1,0.3,0.4,0.6,0.9,1l7.6,5.9l1.5-2
			c1-1.3,1.3-2.3,1-3c-0.2-0.5-1-1.3-2.4-2.4l2.5-3.2L40.9,98.5z"/>
		<path id="XMLID_158_" class="st1" d="M47.7,76.9l-3.2,2.7l0,0.1c-0.5-0.6-1.1-0.8-1.9-0.5c-0.5,0.2-1.2,0.6-1.9,1.2l-2.1,1.8
			l2.7,3.1l5-4.3l1.4,1.7l-5,4.3l2,2.3c0.4,0.5,0.7,0.8,1,0.9c0.4,0.1,0.8,0.1,1.3-0.2l1.5,1.7l-5.7,4.8l-1.5-1.7
			c0.5-0.7,0.4-1.5-0.3-2.3L36,86.4c-0.4-0.4-0.7-0.7-1-0.8c-0.3-0.1-0.7,0-1.2,0.2l-1.4-1.6l12.5-10.7L47.7,76.9z"/>
		<path id="XMLID_155_" class="st1" d="M78.9,68.1c0.5,1.1,0.7,2,0.8,2.7c0.2,2-1.8,3.9-6,5.6c-4.2,1.7-6.9,1.8-8.3,0.3
			c-0.4-0.5-0.9-1.3-1.4-2.5L62,69.2c-0.5-1.2-0.8-2.1-0.8-2.7c-0.1-2,1.9-3.9,6-5.6c4.1-1.7,6.9-1.8,8.2-0.3
			c0.4,0.5,0.9,1.3,1.4,2.5L78.9,68.1z M74.5,70.1l-2.2-5.4c-0.7-1.7-2.1-2.2-4-1.4c-2,0.8-2.6,2.1-1.9,3.9l2.2,5.4
			c0.7,1.7,2.1,2.2,4.1,1.4C74.6,73.2,75.2,71.9,74.5,70.1z"/>
		<path id="XMLID_153_" class="st1" d="M98.6,57.5l-4.1,0.8l0,0.1c-0.1-0.8-0.6-1.2-1.3-1.4c-0.5-0.1-1.3-0.1-2.3,0.1l-2.7,0.5
			l0.8,4.1l6.5-1.2l0.4,2.1l-6.5,1.2l0.6,3c0.1,0.6,0.3,1,0.4,1.3c0.2,0.3,0.6,0.5,1.2,0.5l0.4,2.2L84.6,72l-0.4-2.2
			c0.8-0.4,1.1-1.1,0.9-2.1l-1.5-7.9c-0.1-0.6-0.3-1-0.5-1.2c-0.2-0.3-0.6-0.4-1.1-0.5L81.6,56l16.2-3L98.6,57.5z"/>
		<path id="XMLID_151_" class="st1" d="M129.2,69.7c-2.4,0.6-5,0.8-7.8,0.4c-4.4-0.6-6.9-1.9-7.3-3.9c-0.1-0.6-0.1-1.6,0-2.8
			l0.7-5.5c0.2-1.6,0.5-2.6,0.9-3.2c1.1-1.5,3.7-2,7.8-1.5c2.8,0.4,5.3,1,7.5,2.1l-0.5,3.9l-4.5-0.6l0,0.2c0.2-1.7-0.7-2.7-2.8-3
			c-2.1-0.3-3.3,0.5-3.6,2.4l-0.7,5.8c-0.2,1.9,0.7,2.9,2.8,3.2c2.1,0.3,3.3-0.5,3.5-2.4l0.1-0.9l-2.3-0.3l0.3-2l6.8,0.9L129.2,69.7
			z"/>
		<path id="XMLID_149_" class="st1" d="M148.9,77.3L133,71.6l0.8-2.1c0.5,0,1-0.1,1.3-0.3c0.2-0.2,0.4-0.6,0.6-1.1l2.7-7.5
			c0.2-0.5,0.2-1,0.2-1.3c-0.1-0.3-0.3-0.6-0.8-1l0.7-2l15.9,5.7l-1.5,4.2l-4.2-1.5c0.3-0.7,0.1-1.4-0.6-1.9
			c-0.4-0.4-1.1-0.7-2.1-1.1l-2.5-0.9l-1.4,4l6.5,2.3l-0.7,2l-6.5-2.3l-1.6,4.5l2.9,1c1,0.4,1.8,0.5,2.3,0.4
			c0.7-0.1,1.2-0.7,1.5-1.6l4.2,1.5L148.9,77.3z"/>
		<path id="XMLID_146_" class="st1" d="M168.5,82.8c-0.6,1-1.2,1.7-1.8,2.2c-1.5,1.3-4.2,0.8-8.1-1.6c-3.8-2.4-5.5-4.6-5-6.5
			c0.1-0.6,0.6-1.5,1.2-2.6l2.9-4.7c0.7-1.1,1.3-1.8,1.8-2.2c1.6-1.3,4.3-0.7,8.1,1.7c3.8,2.4,5.5,4.5,5,6.5
			c-0.2,0.7-0.6,1.5-1.2,2.6L168.5,82.8z M164.3,80.4l3.1-4.9c1-1.6,0.6-3-1.2-4.1c-1.8-1.1-3.2-0.9-4.2,0.7l-3.1,4.9
			c-1,1.6-0.6,3,1.2,4.1C161.9,82.2,163.3,82,164.3,80.4z"/>
		<path id="XMLID_143_" class="st1" d="M181.4,102.1l-3.9-3.8c0.1-0.4,0.5-1,1.3-1.8c1-1,1.6-1.7,1.9-2c0.5-0.7,0.6-1.4,0.2-2
			c-0.2-0.4-0.7-1-1.4-1.7l-1.7-1.6l-1.7,1.8c-0.4,0.4-0.7,0.8-0.8,1.1c-0.1,0.4-0.1,0.8,0.2,1.3l-1.6,1.6l-5.3-5.2l1.6-1.6
			c0.5,0.3,0.9,0.3,1.3,0.2c0.3-0.1,0.7-0.3,1.1-0.8l5.5-5.6c0.4-0.4,0.7-0.8,0.8-1.1c0.1-0.3,0-0.8-0.3-1.3l1.5-1.5l6.8,6.6
			c1.6,1.6,2.7,3,3.2,4.1c0.8,1.8,0.5,3.3-0.8,4.7c-1.4,1.4-3.1,1.4-5,0.1l-0.4,0.5c0.3,0.4,0.6,0.7,0.7,1c0.2,0.4,0.3,0.8,0.4,1.1
			c0.1,0.5-0.2,1.1-0.9,1.8l-0.3,0.3c-0.8,0.8-1,1.6-0.7,2.2L181.4,102.1z M185.7,90.4c1.1-1.1,0.8-2.5-0.9-4.2l-2-2l-3.3,3.4l2,2
			C183.2,91.2,184.6,91.5,185.7,90.4z"/>
		<path id="XMLID_141_" class="st1" d="M193.1,117.7c-2.1-1.4-3.9-3.3-5.4-5.7c-2.4-3.8-3-6.4-1.8-8.1c0.4-0.5,1.1-1.1,2.2-1.8
			l4.7-3c1.3-0.9,2.3-1.3,3-1.4c1.9-0.1,3.9,1.5,6.2,5c1.5,2.3,2.6,4.7,3.2,7.1l-3.3,2.1l-2.5-3.8l-0.2,0.1c1.4-0.9,1.6-2.3,0.4-4.1
			c-1.2-1.8-2.5-2.2-4.1-1.2l-4.9,3.2c-1.6,1-1.8,2.4-0.6,4.2c1.1,1.8,2.5,2.2,4.1,1.1l0.8-0.5l-1.3-2l1.7-1.1l3.7,5.8L193.1,117.7z
			"/>
		<path id="XMLID_139_" class="st1" d="M196.8,128.9l-3-6.8l2.1-0.9c0.3,0.4,0.7,0.7,1.1,0.7c0.3,0,0.7-0.1,1.2-0.3l7.3-3.2
			c0.5-0.2,0.9-0.5,1.1-0.7c0.2-0.3,0.3-0.7,0.2-1.3l2-0.9l3,6.8l-2,0.9c-0.3-0.4-0.7-0.7-1.1-0.7c-0.3,0-0.7,0.1-1.3,0.3l-7.3,3.1
			c-0.5,0.2-0.9,0.5-1.1,0.7c-0.2,0.3-0.3,0.7-0.2,1.2L196.8,128.9z"/>
		<path id="XMLID_136_" class="st1" d="M202.5,149.2l-1.8-7.4l2.2-0.5c0.4,0.8,0.9,1.1,1.6,0.9c0.1,0,0.6-0.3,1.2-0.7l-1.4-5.6
			c-0.8-0.1-1.3-0.1-1.6,0c-0.6,0.2-0.9,0.7-0.8,1.6l-2.2,0.5l-1.6-6.6l2.2-0.5c0.4,0.6,1.2,1,2.3,1l12.5,0.5l1.9,7.6l-11,6.7
			c-0.8,0.5-1.2,1.1-1.3,1.8L202.5,149.2z M207.1,140.5l6.2-3.4l-0.2-1l-7.1-0.1L207.1,140.5z"/>
	</g>
</g>
</svg>
