<?xml version="1.0" encoding="utf-8"?>
<!-- Generator: Adobe Illustrator 19.0.0, SVG Export Plug-In . SVG Version: 6.00 Build 0)  -->
<svg version="1.1" id="Layer_1" xmlns="http://www.w3.org/2000/svg" xmlns:xlink="http://www.w3.org/1999/xlink" x="0px" y="0px"
	 viewBox="0 0 197.8 300" style="enable-background:new 0 0 197.8 300;" xml:space="preserve">
<style type="text/css">
	.st0{display:none;opacity:0.5;}
	.st1{fill:#FFFFFF;}
</style>
<path id="XMLID_59_" class="st0" d="M98.7,129.1c-11.6,0-20.9,9.4-20.9,20.9s9.4,20.9,20.9,20.9s20.9-9.4,20.9-20.9
	S110.2,129.1,98.7,129.1z M110.7,152h-9v10h-5v-10h-9v-6h9v-10h5v10h9V152z"/>
<g id="XMLID_176_">
	<path id="XMLID_223_" class="st1" d="M88.7,147.1h20.7v4.8H88.7V147.1z"/>
	<path id="XMLID_27_" class="st1" d="M0.9,92.9c0-12,5.4-17.2,12.4-17.2c7.1,0,12.5,5.1,12.5,17.2c0,12.1-5.3,17.2-12.5,17.2
		C6.2,110,0.9,105,0.9,92.9z M20.5,92.9c0-9.3-2.3-12.2-7.3-12.2C8.4,80.7,6,83.6,6,92.9c0,9.3,2.4,12.2,7.2,12.2
		C18.2,105.1,20.5,102.1,20.5,92.9z"/>
	<path id="XMLID_28_" class="st1" d="M63.6,97.2c0.3,2.7,1.2,7.9,7.9,7.9c3.6,0,6.6-1.5,6.6-5.2c0-3.1-1.9-4.7-6.8-5.9
		c-6-1.6-10.7-3.7-10.7-9.6c0-4.5,3.6-8.7,10.5-8.7c5.6,0,9.9,3.1,11.2,8.6l-4.8,1c-0.6-1.9-2.1-4.7-6.4-4.7c-3.5,0-5.5,1.8-5.5,3.8
		c0,2.7,3.2,3.7,7.1,4.8c4.7,1.5,10.5,3.1,10.5,10.7c0,6-4.6,10.1-11.8,10.1c-9.8,0-12.4-7.1-12.8-12L63.6,97.2z"/>
	<path id="XMLID_29_" class="st1" d="M120.2,76.4h20.4v4.9h-15.2v8.2h13.8v4.9h-13.8v9.9h15.2v4.9h-20.4V76.4z"/>
	<path id="XMLID_30_" class="st1" d="M174.5,104.4h7.7v-23h-7.7v-4.9h20.6v4.9h-7.8v23h7.8v4.9h-20.6V104.4z"/>
	<path id="XMLID_31_" class="st1" d="M4.1,190.7h11.2c7.2,0,12.5,4.4,12.5,16.5c0,12.1-5.3,16.4-12.5,16.4H4.1V190.7z M15.3,218.6
		c4.9,0,7.3-2.3,7.3-11.5c0-9.3-2.4-11.5-7.3-11.5h-6v23H15.3z"/>
	<path id="XMLID_32_" class="st1" d="M60.9,190.7h5.2v21.7c0,4.1,1.9,7,6.8,7c4.9,0,6.8-2.9,6.8-6.9v-21.8h5.2v21.5
		c0,7-4.8,12.1-12,12.1c-7,0-11.9-5.1-11.9-12.1V190.7z"/>
	<path id="XMLID_33_" class="st1" d="M120.2,190.7h11.1c5.3,0,9.8,4.1,9.8,9.7c0,6.8-5.8,8.9-5.8,8.9l6.8,14.3h-5.6l-6.4-13.5h-4.7
		v13.5h-5.2V190.7z M131.3,205.2c1.4,0,4.6-0.6,4.6-4.7c0-3.2-2.3-4.8-4.6-4.8h-6v9.5H131.3z"/>
	<path id="XMLID_34_" class="st1" d="M171.6,207.1c0-12,5.4-17.2,12.4-17.2c7.1,0,12.5,5.1,12.5,17.2c0,12.1-5.3,17.2-12.5,17.2
		C177,224.3,171.6,219.2,171.6,207.1z M191.3,207.1c0-9.3-2.3-12.2-7.3-12.2c-4.8,0-7.2,2.9-7.2,12.2c0,9.3,2.4,12.2,7.2,12.2
		C189,219.3,191.3,216.4,191.3,207.1z"/>
	<path id="XMLID_60_" class="st1" d="M16.3,93c0,1.7-1.4,3.1-3.1,3.1c-1.7,0-3.1-1.4-3.1-3.1c0-1.7,1.4-3.1,3.1-3.1
		C14.9,89.9,16.3,91.3,16.3,93z"/>
	<circle id="XMLID_57_" class="st1" cx="183.8" cy="207.2" r="3.1"/>
</g>
</svg>
