<svg id="Layer_1" xmlns="http://www.w3.org/2000/svg" viewBox="0 0 400 300"><style>.st0{display:none;opacity:.5}.st1{fill:#FFF}</style><path id="XMLID_59_" class="st0" d="M200 129.1c-11.6 0-20.9 9.4-20.9 20.9s9.4 20.9 20.9 20.9 20.9-9.4 20.9-20.9-9.3-20.9-20.9-20.9zm12 22.9h-9v10h-5v-10h-9v-6h9v-10h5v10h9v6z"/><g id="XMLID_176_"><path id="XMLID_223_" class="st1" d="M190 147.1h20.7v4.8H190v-4.8z"/><path id="XMLID_27_" class="st1" d="M102.2 92.9c0-12 5.4-17.2 12.4-17.2 7.1 0 12.5 5.1 12.5 17.2s-5.3 17.2-12.5 17.2c-7.1-.1-12.4-5.1-12.4-17.2zm19.7 0c0-9.3-2.3-12.2-7.3-12.2-4.8 0-7.2 2.9-7.2 12.2 0 9.3 2.4 12.2 7.2 12.2 4.9 0 7.3-3 7.3-12.2z"/><path id="XMLID_28_" class="st1" d="M164.9 97.2c.3 2.7 1.2 7.9 7.9 7.9 3.6 0 6.6-1.5 6.6-5.2 0-3.1-1.9-4.7-6.8-5.9-6-1.6-10.7-3.7-10.7-9.6 0-4.5 3.6-8.7 10.5-8.7 5.6 0 9.9 3.1 11.2 8.6l-4.8 1c-.6-1.9-2.1-4.7-6.4-4.7-3.5 0-5.5 1.8-5.5 3.8 0 2.7 3.2 3.7 7.1 4.8 4.7 1.5 10.5 3.1 10.5 10.7 0 6-4.6 10.1-11.8 10.1-9.8 0-12.4-7.1-12.8-12l5-.8z"/><path id="XMLID_29_" class="st1" d="M221.5 76.4h20.4v4.9h-15.2v8.2h13.8v4.9h-13.8v9.9h15.2v4.9h-20.4V76.4z"/><path id="XMLID_30_" class="st1" d="M275.8 104.4h7.7v-23h-7.7v-4.9h20.6v4.9h-7.8v23h7.8v4.9h-20.6v-4.9z"/><path id="XMLID_31_" class="st1" d="M105.4 190.7h11.2c7.2 0 12.5 4.4 12.5 16.5s-5.3 16.4-12.5 16.4h-11.2v-32.9zm11.2 27.9c4.9 0 7.3-2.3 7.3-11.5 0-9.3-2.4-11.5-7.3-11.5h-6v23h6z"/><path id="XMLID_32_" class="st1" d="M162.2 190.7h5.2v21.7c0 4.1 1.9 7 6.8 7s6.8-2.9 6.8-6.9v-21.8h5.2v21.5c0 7-4.8 12.1-12 12.1-7 0-11.9-5.1-11.9-12.1v-21.5z"/><path id="XMLID_33_" class="st1" d="M221.5 190.7h11.1c5.3 0 9.8 4.1 9.8 9.7 0 6.8-5.8 8.9-5.8 8.9l6.8 14.3h-5.6l-6.4-13.5h-4.7v13.5h-5.2v-32.9zm11.1 14.5c1.4 0 4.6-.6 4.6-4.7 0-3.2-2.3-4.8-4.6-4.8h-6v9.5h6z"/><path id="XMLID_34_" class="st1" d="M273 207.1c0-12 5.4-17.2 12.4-17.2 7.1 0 12.5 5.1 12.5 17.2s-5.3 17.2-12.5 17.2c-7.1 0-12.4-5.1-12.4-17.2zm19.7 0c0-9.3-2.3-12.2-7.3-12.2-4.8 0-7.2 2.9-7.2 12.2 0 9.3 2.4 12.2 7.2 12.2 4.9 0 7.3-2.9 7.3-12.2z"/><path id="XMLID_60_" class="st1" d="M117.6 93c0 1.7-1.4 3.1-3.1 3.1-1.7 0-3.1-1.4-3.1-3.1 0-1.7 1.4-3.1 3.1-3.1 1.8 0 3.1 1.4 3.1 3.1z"/><circle id="XMLID_57_" class="st1" cx="285.1" cy="207.2" r="3.1"/></g></svg>