<svg id="Layer_1" xmlns="http://www.w3.org/2000/svg" viewBox="0 0 400 300"><style>.st0{display:none;opacity:.5}.st1{fill:#fff}</style><path id="XMLID_59_" class="st0" d="M200 129.1c-11.6 0-20.9 9.4-20.9 20.9s9.4 20.9 20.9 20.9 20.9-9.4 20.9-20.9-9.3-20.9-20.9-20.9zm12 22.9h-9v10h-5v-10h-9v-6h9v-10h5v10h9v6z"/><g id="XMLID_174_"><path id="t_u" class="st1" d="M55.4 97.6v55.7l2.9 8.7 5.2 5.3 9 3h5.3l8.9-3 5.2-5.3 3.1-8.8V97.6h12v57.7l-4.4 13.3-9.4 9.4-13.3 4.4h-9.4L57.2 178l-9.4-9.4-4.4-13.3V97.6h12z"/><path id="t_t" class="st1" d="M116.5 124.6h10.2v-18.1h11.9v18.1h14.1v11.7h-14.1v23.8l2.6 7.5 3.7 1.9h7.7v11.7h-10.5l-10.5-5.3-4.7-14v-25.8h-10.4v-11.5z"/><path id="t_i" class="st1" d="M168.3 124.6h11.8v56.7h-11.8z"/><path id="t_l" class="st1" d="M208.4 97.6v65.9l2.5 4.7 1.3 1.3h7.9v11.7h-12.8l-5.9-5.9-4.6-9.4V97.6h11.6z"/><path id="t_i_2" class="st1" d="M231.9 124.6h11.8v56.7h-11.8z"/><path id="t_t_2" class="st1" d="M254.5 124.6h10.2v-18.1h11.8v18.1h14.1v11.7h-14.1v23.8l2.6 7.5 3.7 1.9h7.7v11.7H280l-10.5-5.3-4.7-14v-25.8h-10.2l-.1-11.5z"/><path id="t_y" class="st1" d="M310.8 124.6L327 164l16.9-39.3h12.7l-24 56-6.9 15.4-8.4 8.4-9.4 4.7h-8.2v-11.7h5.6l5.1-2.6 5.9-5.9 4.7-10.8-22.8-53.6h12.6z"/><path id="t_i_3" class="st1" d="M185.5 106.1l-11.2 11.3-11.3-11.3 11.3-11.3z"/><path id="t_i_4" class="st1" d="M249.1 106.1l-11.3 11.3-11.2-11.3 11.2-11.3z"/></g></svg>