<?xml version="1.0" encoding="utf-8"?>
<!-- Generator: Adobe Illustrator 19.0.0, SVG Export Plug-In . SVG Version: 6.00 Build 0)  -->
<svg version="1.1" id="Layer_1" xmlns="http://www.w3.org/2000/svg" xmlns:xlink="http://www.w3.org/1999/xlink" x="0px" y="0px"
	 viewBox="0 0 317.9 300" style="enable-background:new 0 0 317.9 300;" xml:space="preserve">
<style type="text/css">
	.st0{display:none;opacity:0.5;}
	.st1{fill:#FFFFFF;}
</style>
<path id="XMLID_59_" class="st0" d="M159.1,129.1c-11.6,0-20.9,9.4-20.9,20.9s9.4,20.9,20.9,20.9S180,161.6,180,150
	S170.6,129.1,159.1,129.1z M171.1,152h-9v10h-5v-10h-9v-6h9v-10h5v10h9V152z"/>
<g id="XMLID_174_">
	<path id="t_u" class="st1" d="M14.4,97.6v55.7l2.9,8.7l5.2,5.3l9,3h5.3l8.9-3l5.2-5.3l3.1-8.8V97.6h12v57.7l-4.4,13.3l-9.4,9.4
		l-13.3,4.4h-9.4L16.2,178l-9.4-9.4l-4.4-13.3V97.6H14.4z"/>
	<path id="t_t" class="st1" d="M75.6,124.6h10.2v-18.1h11.9v18.1h14.1v11.7H97.7v23.8l2.6,7.5l3.7,1.9h7.7v11.7h-10.5l-10.5-5.3
		L86,162v-25.8H75.6V124.6z"/>
	<rect id="t_i" x="127.4" y="124.6" class="st1" width="11.8" height="56.7"/>
	<path id="t_l" class="st1" d="M167.5,97.6v65.9l2.5,4.7l1.3,1.3h7.9v11.7h-12.8l-5.9-5.9l-4.6-9.4V97.6H167.5z"/>
	<rect id="t_i_2" x="191" y="124.6" class="st1" width="11.8" height="56.7"/>
	<path id="t_t_2" class="st1" d="M213.6,124.6h10.2v-18.1h11.8v18.1h14.1v11.7h-14.1v23.8l2.6,7.5l3.7,1.9h7.7v11.7h-10.5l-10.5-5.3
		l-4.7-14v-25.8h-10.2L213.6,124.6L213.6,124.6z"/>
	<path id="t_y" class="st1" d="M269.9,124.6L286,164l16.9-39.3h12.7l-24,56l-6.9,15.4l-8.4,8.4l-9.4,4.7h-8.2v-11.7h5.6l5.1-2.6
		l5.9-5.9l4.7-10.8l-22.8-53.6L269.9,124.6L269.9,124.6z"/>
	<polygon id="t_i_3" class="st1" points="144.6,106.1 133.3,117.4 122.1,106.1 133.3,94.8 	"/>
	<polygon id="t_i_4" class="st1" points="208.1,106.1 196.9,117.4 185.6,106.1 196.9,94.8 	"/>
</g>
</svg>
