<svg id="Layer_1" xmlns="http://www.w3.org/2000/svg" viewBox="0 0 400 300"><style>.st0{fill:#d9272e}</style><path id="XMLID_1_" class="st0" d="M170.6 115.9c-10.2 0-20.6 1.7-26.4 4.2-1.5.7-2.1 1.2-2.1 2.8v58.9h19.7v-52.3c0-.4.1-.5.8-.8 1.2-.4 4.2-1.2 7.7-1.2 8.1 0 10.1 4.5 10.1 9.3v45H200v-43.1c0-4.2-.3-6.8-.9-8.8-2.7-8.3-11-14-28.5-14zm74.4 53.9c-9.4 0-16.6-7.3-16.6-19.9 0-12.6 6.8-20.7 15.7-20.7 2.5 0 4.6.4 7.4 1.5l4.2-11.7c-4.1-2.1-8.6-3.1-14.6-3.1-19.4 0-32.5 13.1-32.5 34.5s13.9 32.6 32.9 32.6c6.5 0 11-.9 15.1-3l-4.2-11.7c-2.8 1.1-4.9 1.5-7.4 1.5zm-141.3-53.9c-10.2 0-19.4 2.3-25.8 4.9l4 10.8c4.9-2.1 11.3-4 17.8-4 7.2 0 12 2 12 8.9v2.8c-23 1.3-38.3 6.9-38.3 23.4 0 13.7 10.5 20.4 30.9 20.4 9.2 0 21.2-1.9 25.4-4.4.8-.5 1.6-1.1 1.6-2.9v-37.5c0-13.1-7.4-22.4-27.6-22.4zm8 52.9c0 .9-.5 1.6-1.2 1.9-1.2.5-3.2.8-6 .8-7.7 0-11.3-3.6-11.3-9.2 0-7.3 5.7-11.7 18.5-12.1v18.6zm152.4 13.1h19.7v-64.8h-19.7v64.8zm0 0h19.7v-64.8h-19.7v64.8zm9.9-92.6c-6 0-11.2 3.8-11.2 9.8 0 6 5.2 9.8 11.2 9.8 6 0 11.2-3.8 11.2-9.8-.1-5.9-5.2-9.8-11.2-9.8zm82.3 27.8h-35.6V98.7l-19.8 5.6v12.8h-8.5v12.1h8.5v34.6c0 11 6.1 19.2 20.6 19.2 6.4 0 12.2-1.5 15.4-3.7l-4-11.3c-1.6 1.1-4.1 1.6-6 1.6-3.3 0-6.2-1.2-6.2-7.2v-33.3H338c3 21.8 12.8 39 26 48.4-4.1 8.5-12.5 15.8-21.2 19l5.6 14.1c32.4-13.4 49-56.9 51.6-93.6h-19.2c-.7 20.4-4.1 35.2-9.6 47-8.9-9-14.2-26.6-14.9-46.9zM52.6 98.9c.3 8.1-1.6 47.2-16.9 66.4-15.2-19.2-17.1-58.3-16.8-66.4H0c-.3 13 2.4 59.4 29.5 81.9.3.3 1.1.9 2.3.9h8c1.2 0 2-.7 2.3-.9 27.1-22.4 29.7-68.9 29.5-81.9h-19z"/></svg>