<?xml version="1.0" encoding="utf-8"?>
<!-- Generator: Adobe Illustrator 19.0.0, SVG Export Plug-In . SVG Version: 6.00 Build 0)  -->
<svg version="1.1" id="Layer_1" xmlns="http://www.w3.org/2000/svg" xmlns:xlink="http://www.w3.org/1999/xlink" x="0px" y="0px"
	 viewBox="0 0 315.1 300" style="enable-background:new 0 0 315.1 300;" xml:space="preserve">
<style type="text/css">
	.st0{fill:#FFFFFF;}
	.st1{display:none;opacity:0.5;}
</style>
<path id="XMLID_54_" class="st0" d="M44,149.7c0,11.6-9.4,21-21,21c-11.6,0-21-9.4-21-21c0-11.6,9.4-21,21-21
	C34.6,128.7,44,138.1,44,149.7z"/>
<g id="XMLID_261_">
	<path id="XMLID_53_" class="st0" d="M29.1,108.5h-4.6l-2.9-14.9c-0.5-2.7-1.9-10.3-2.1-11.8c-0.2,1.5-1.5,9.1-2,11.6l-2.9,15h-4.4
		L2.7,66h5.9l2.6,15.3c0.4,2.6,1.8,11.4,2,12.9c0.2-1.5,1.6-10.4,1.9-12.9L17.5,66h4.5l2.5,15.3c0.4,2.5,1.8,11.3,2,12.9
		c0.2-1.5,1.5-10.3,1.9-12.9L31,66h5.8L29.1,108.5z"/>
</g>
<g id="XMLID_257_">
	<path id="XMLID_258_" class="st0" d="M62.8,108.5l-2.5-11.2h-9.2l-2.4,11.2h-6.3L52.8,66H59l10.4,42.5H62.8z M57.6,84.5
		c-0.6-2.8-1.5-7.7-1.8-9.3c-0.3,1.6-1.2,6.4-1.8,9.3l-1.6,7.2h6.8L57.6,84.5z"/>
</g>
<g id="XMLID_255_">
	<path id="XMLID_50_" class="st0" d="M88.1,109.2c-5.3,0-8.8-2.8-11.2-6.9l4.7-3.8c2.3,3.6,4.3,4.7,6.9,4.7c3.2,0,5.1-1.9,5.1-5.4
		c0-3.3-1.4-5.2-7.1-8.9c-4.8-3.2-8.6-6.2-8.6-12.9c0-6.2,4.1-10.6,10.7-10.6c4.9,0,7.8,2.1,10.3,5.8L94.6,75
		c-2.1-2.7-3.5-3.7-6.1-3.7c-2.9,0-4.4,1.8-4.4,4.5c0,3.2,1.5,4.9,6.2,7.9c5.3,3.4,9.5,6.7,9.5,13.8
		C99.7,104.3,95.6,109.2,88.1,109.2z"/>
</g>
<g id="XMLID_245_">
	<path id="XMLID_49_" class="st0" d="M119.2,109.2c-5.3,0-8.8-2.8-11.2-6.9l4.7-3.8c2.3,3.6,4.3,4.7,6.9,4.7c3.2,0,5.1-1.9,5.1-5.4
		c0-3.3-1.4-5.2-7.1-8.9c-4.8-3.2-8.6-6.2-8.6-12.9c0-6.2,4.1-10.6,10.7-10.6c4.9,0,7.8,2.1,10.3,5.8l-4.4,3.9
		c-2.1-2.7-3.5-3.7-6.1-3.7c-2.9,0-4.4,1.8-4.4,4.5c0,3.2,1.5,4.9,6.2,7.9c5.3,3.4,9.5,6.7,9.5,13.8
		C130.8,104.3,126.7,109.2,119.2,109.2z"/>
	<path id="XMLID_48_" class="st0" d="M142.3,108.5V66h20v5.8h-14v11.3h9.2v5.7h-9.2v13.9h14.8v5.8L142.3,108.5L142.3,108.5z"/>
	<path id="XMLID_250_" class="st0" d="M191.4,108.5L185,90h-4.9v18.5h-5.9V66h11.9c6.2,0,11.8,3.3,11.8,11.8c0,6.1-2.7,9.6-6.7,11.2
		l6.8,19.5H191.4z M185.6,71.8h-5.5v12.5h5.5c3.8,0,6.2-1.9,6.2-6.3C191.8,73.6,189.2,71.8,185.6,71.8z"/>
	<path id="XMLID_45_" class="st0" d="M232.8,108.5V91.4c0-2.7,0.1-8.9,0.1-10.5c-0.5,1.7-2.3,7.9-3.3,11l-5.5,17.8l-5.5-17.8
		c-1-3.1-2.8-9.3-3.3-11c0.1,1.6,0.1,7.8,0.1,10.5v17.1h-5.6V66h6.2l5.5,17.7c0.8,2.6,2.2,7.8,2.6,9.3c0.4-1.6,1.9-7,2.7-9.5
		l5.5-17.5h6.2v42.5H232.8z"/>
	<path id="XMLID_246_" class="st0" d="M269.6,108.5l-2.5-11.2h-9.2l-2.4,11.2h-6.3L259.6,66h6.1l10.4,42.5H269.6z M264.4,84.5
		c-0.6-2.8-1.5-7.7-1.8-9.3c-0.3,1.6-1.2,6.4-1.8,9.3l-1.6,7.2h6.8L264.4,84.5z"/>
</g>
<g id="XMLID_243_">
	<path id="XMLID_41_" class="st0" d="M305.7,108.5l-10.3-22.8c-0.8-1.8-2.4-5.8-3-7c0.1,1.6,0.1,6.4,0.1,8.5v21.2h-5.8V66h5.9
		l9.2,20.2c0.9,1.8,2.4,5.8,3,7c-0.1-1.6-0.1-6.4-0.1-8.5V66h5.8v42.5H305.7z"/>
</g>
<g id="XMLID_241_">
	<path id="XMLID_40_" d="M26,152.9v9.6h-5.9v-9.6h-8.7v-5.7h8.7v-9.6H26v9.6h8.7v5.7L26,152.9z"/>
</g>
<g id="XMLID_237_">
	<path id="XMLID_238_" class="st0" d="M68,153.9h-5v17.3h-5.9v-42.5h11.2c6,0,12,3.6,12,12.4C80.3,149.8,74.4,153.9,68,153.9z
		 M67.9,134.6H63v13.6h5c3.5,0,6.1-2.2,6.1-6.9C74.1,136.5,71.3,134.6,67.9,134.6z"/>
</g>
<g id="XMLID_233_">
	<path id="XMLID_234_" class="st0" d="M105.6,171.2l-2.5-11.2h-9.2l-2.4,11.2h-6.3l10.4-42.5h6.1l10.4,42.5H105.6z M100.3,147.2
		c-0.6-2.8-1.5-7.7-1.8-9.3c-0.3,1.6-1.2,6.4-1.8,9.3l-1.6,7.2h6.8L100.3,147.2z"/>
</g>
<g id="XMLID_229_">
	<path id="XMLID_230_" class="st0" d="M140,171.2l-6.4-18.5h-4.9v18.5h-5.9v-42.5h12c6.2,0,11.8,3.3,11.8,11.8
		c0,6.1-2.7,9.6-6.7,11.2l6.8,19.5L140,171.2L140,171.2z M134.2,134.5h-5.5V147h5.5c3.8,0,6.2-1.9,6.2-6.3
		C140.4,136.3,137.8,134.5,134.2,134.5z"/>
</g>
<g id="XMLID_222_">
	<path id="XMLID_22_" class="st0" d="M169.1,134.6v36.6h-5.9v-36.6h-7.8v-5.8H177v5.8H169.1z"/>
	<path id="XMLID_21_" class="st0" d="M207,171.2l-10.2-22.7c-0.9-1.8-2.4-5.8-3-7c0.1,1.6,0.1,6.4,0.1,8.5v21.2h-5.8v-42.5h5.9
		l9.2,20.2c0.8,1.8,2.4,5.8,3,7c-0.1-1.6-0.1-6.4-0.1-8.5v-18.7h5.8v42.5L207,171.2L207,171.2z"/>
	<path id="XMLID_20_" class="st0" d="M225.2,171.2v-42.5h20v5.8h-14v11.3h9.2v5.7h-9.2v13.9h14.8v5.8H225.2z"/>
	<path id="XMLID_223_" class="st0" d="M274.3,171.2l-6.4-18.5H263v18.5H257v-42.5h12c6.2,0,11.8,3.3,11.8,11.8
		c0,6.1-2.7,9.6-6.7,11.2l6.8,19.5L274.3,171.2L274.3,171.2z M268.5,134.5H263V147h5.5c3.8,0,6.2-1.9,6.2-6.3
		C274.7,136.3,272.1,134.5,268.5,134.5z"/>
</g>
<g id="XMLID_220_">
	<path id="XMLID_17_" class="st0" d="M301.4,171.9c-5.3,0-8.8-2.8-11.2-6.9l4.7-3.8c2.3,3.6,4.3,4.7,6.9,4.7c3.2,0,5.1-1.9,5.1-5.4
		c0-3.3-1.4-5.2-7.1-8.9c-4.8-3.2-8.6-6.3-8.6-12.9c0-6.2,4.1-10.6,10.7-10.6c4.9,0,7.8,2.1,10.3,5.8l-4.4,3.9
		c-2.1-2.7-3.5-3.7-6.1-3.7c-2.9,0-4.4,1.8-4.4,4.5c0,3.2,1.5,4.9,6.2,7.9c5.3,3.4,9.5,6.7,9.5,13.8C313,167,309,171.9,301.4,171.9z
		"/>
</g>
<g id="XMLID_216_">
	<path id="XMLID_217_" class="st0" d="M22.5,234l-2.5-11.2h-9.2L8.4,234H2.1l10.4-42.5h6.1L29,234H22.5z M17.3,209.9
		c-0.6-2.8-1.5-7.7-1.8-9.3c-0.3,1.6-1.2,6.4-1.8,9.3l-1.6,7.2h6.8L17.3,209.9z"/>
</g>
<g id="XMLID_209_">
	<path id="XMLID_211_" class="st0" d="M47.5,234H37.2v-42.5h10.3c9.4,0,13.5,8.4,13.5,21C61,225.2,56.5,234,47.5,234z M47.4,197.3
		h-4.2v30.8h4.4c5.7,0,7.3-8.1,7.3-15.6C54.9,205.1,53.3,197.3,47.4,197.3z"/>
</g>
<g id="XMLID_203_">
	<path id="XMLID_12_" class="st0" d="M81.4,234H77l-10.9-42.5h6.5l4.9,21.3c0.5,2.2,1.6,7.5,1.9,9c0.3-1.5,1.4-6.7,1.9-9l4.9-21.3
		h6.3L81.4,234z"/>
	<path id="XMLID_11_" class="st0" d="M100.6,234v-42.5h20v5.8h-14v11.3h9.2v5.7h-9.2v13.9h14.8v5.8L100.6,234L100.6,234z"/>
</g>
<g id="XMLID_196_">
	<path id="XMLID_198_" class="st0" d="M147.3,234l-6.4-18.5H136V234H130v-42.5H142c6.2,0,11.8,3.3,11.8,11.8c0,6.1-2.7,9.6-6.7,11.2
		l6.8,19.5L147.3,234L147.3,234z M141.5,197.3H136v12.5h5.5c3.8,0,6.2-1.9,6.2-6.3C147.7,199.1,145.1,197.3,141.5,197.3z"/>
</g>
<g id="XMLID_185_">
	<path id="XMLID_8_" class="st0" d="M174,197.3V234h-5.9v-36.6h-7.8v-5.8h21.6v5.8H174z"/>
	<path id="XMLID_7_" class="st0" d="M190.8,234v-42.5h5.9V234H190.8z"/>
	<path id="XMLID_6_" class="st0" d="M216.6,234.6c-5.3,0-8.8-2.8-11.2-6.9l4.7-3.8c2.3,3.6,4.3,4.7,6.9,4.7c3.2,0,5.1-1.9,5.1-5.4
		c0-3.3-1.4-5.2-7.1-8.9c-4.8-3.2-8.6-6.3-8.6-12.9c0-6.2,4.1-10.6,10.7-10.6c4.9,0,7.8,2.1,10.3,5.8l-4.4,3.9
		c-2.1-2.7-3.5-3.7-6.1-3.7c-2.9,0-4.4,1.8-4.4,4.5c0,3.2,1.5,4.9,6.2,7.9c5.3,3.4,9.5,6.7,9.5,13.8
		C228.2,229.8,224.1,234.6,216.6,234.6z"/>
	<path id="XMLID_5_" class="st0" d="M237.6,234v-42.5h5.9V234H237.6z"/>
	<path id="XMLID_4_" class="st0" d="M273.7,234l-10.3-22.7c-0.9-1.8-2.4-5.8-3-7c0.1,1.6,0.1,6.4,0.1,8.5V234h-5.8v-42.5h5.9
		l9.2,20.2c0.9,1.8,2.4,5.8,3,7c-0.1-1.6-0.1-6.4-0.1-8.5v-18.7h5.8V234H273.7z"/>
</g>
<g id="XMLID_182_">
	<path id="XMLID_3_" class="st0" d="M300.7,234.6c-9,0-12.8-9.8-12.8-21.9c0-12.8,4.1-21.9,13-21.9c6.9,0,10.1,4,11.3,10.4l-5.9,1.6
		c-1-4.4-2.6-5.9-5.6-5.9c-4.7,0-6.7,6.8-6.7,15.9c0,7.2,1.5,15.9,7.1,15.9c4,0,5.5-2.4,5.5-7.6v-3h-4.7v-5.8h10.8v9.4
		C312.7,228.7,309.3,234.6,300.7,234.6z"/>
</g>
<path id="XMLID_59_" class="st1" d="M158.5,129.1c-11.6,0-20.9,9.4-20.9,20.9s9.4,20.9,20.9,20.9s20.9-9.4,20.9-20.9
	S170,129.1,158.5,129.1z M170.5,152h-9v10h-5v-10h-9v-6h9v-10h5v10h9V152z"/>
</svg>
