<svg id="Layer_1" xmlns="http://www.w3.org/2000/svg" viewBox="0 0 400 300"><style>.st0{fill:#fff}.st1{display:none;opacity:.5}</style><path id="XMLID_54_" class="st0" d="M85.5 149.7c0 11.6-9.4 21-21 21s-21-9.4-21-21 9.4-21 21-21 21 9.4 21 21z"/><g id="XMLID_261_"><path id="XMLID_53_" class="st0" d="M70.6 108.5H66l-2.9-14.9c-.5-2.7-1.9-10.3-2.1-11.8-.2 1.5-1.5 9.1-2 11.6l-2.9 15h-4.4L44.2 66h5.9l2.6 15.3c.4 2.6 1.8 11.4 2 12.9.2-1.5 1.6-10.4 1.9-12.9L59 66h4.5L66 81.3c.4 2.5 1.8 11.3 2 12.9.2-1.5 1.5-10.3 1.9-12.9L72.5 66h5.8l-7.7 42.5z"/></g><g id="XMLID_257_"><path id="XMLID_258_" class="st0" d="M104.4 108.5l-2.5-11.2h-9.2l-2.4 11.2H84L94.3 66h6.1l10.4 42.5h-6.4zm-5.3-24c-.6-2.8-1.5-7.7-1.8-9.3-.3 1.6-1.2 6.4-1.8 9.3l-1.6 7.2h6.8l-1.6-7.2z"/></g><g id="XMLID_255_"><path id="XMLID_50_" class="st0" d="M129.6 109.2c-5.3 0-8.8-2.8-11.2-6.9l4.7-3.8c2.3 3.6 4.3 4.7 6.9 4.7 3.2 0 5.1-1.9 5.1-5.4 0-3.3-1.4-5.2-7.1-8.9-4.8-3.2-8.6-6.2-8.6-12.9 0-6.2 4.1-10.6 10.7-10.6 4.9 0 7.8 2.1 10.3 5.8l-4.4 3.9c-2.1-2.7-3.5-3.7-6.1-3.7-2.9 0-4.4 1.8-4.4 4.5 0 3.2 1.5 4.9 6.2 7.9 5.3 3.4 9.5 6.7 9.5 13.8 0 6.7-4.1 11.6-11.6 11.6z"/></g><g id="XMLID_245_"><path id="XMLID_49_" class="st0" d="M160.7 109.2c-5.3 0-8.8-2.8-11.2-6.9l4.7-3.8c2.3 3.6 4.3 4.7 6.9 4.7 3.2 0 5.1-1.9 5.1-5.4 0-3.3-1.4-5.2-7.1-8.9-4.8-3.2-8.6-6.2-8.6-12.9 0-6.2 4.1-10.6 10.7-10.6 4.9 0 7.8 2.1 10.3 5.8l-4.4 3.9c-2.1-2.7-3.5-3.7-6.1-3.7-2.9 0-4.4 1.8-4.4 4.5 0 3.2 1.5 4.9 6.2 7.9 5.3 3.4 9.5 6.7 9.5 13.8 0 6.7-4.1 11.6-11.6 11.6z"/><path id="XMLID_48_" class="st0" d="M183.8 108.5V66h20v5.8h-14v11.3h9.2v5.7h-9.2v13.9h14.8v5.8h-20.8z"/><path id="XMLID_250_" class="st0" d="M232.9 108.5L226.5 90h-4.9v18.5h-5.9V66h11.9c6.2 0 11.8 3.3 11.8 11.8 0 6.1-2.7 9.6-6.7 11.2l6.8 19.5h-6.6zm-5.8-36.7h-5.5v12.5h5.5c3.8 0 6.2-1.9 6.2-6.3s-2.6-6.2-6.2-6.2z"/><path id="XMLID_45_" class="st0" d="M274.3 108.5V91.4c0-2.7.1-8.9.1-10.5-.5 1.7-2.3 7.9-3.3 11l-5.5 17.8-5.5-17.8c-1-3.1-2.8-9.3-3.3-11 .1 1.6.1 7.8.1 10.5v17.1h-5.6V66h6.2l5.5 17.7c.8 2.6 2.2 7.8 2.6 9.3.4-1.6 1.9-7 2.7-9.5l5.5-17.5h6.2v42.5h-5.7z"/><path id="XMLID_246_" class="st0" d="M311.1 108.5l-2.5-11.2h-9.2l-2.4 11.2h-6.3L301.1 66h6.1l10.4 42.5h-6.5zm-5.2-24c-.6-2.8-1.5-7.7-1.8-9.3-.3 1.6-1.2 6.4-1.8 9.3l-1.6 7.2h6.8l-1.6-7.2z"/></g><g id="XMLID_243_"><path id="XMLID_41_" class="st0" d="M347.2 108.5l-10.3-22.8c-.8-1.8-2.4-5.8-3-7 .1 1.6.1 6.4.1 8.5v21.2h-5.8V66h5.9l9.2 20.2c.9 1.8 2.4 5.8 3 7-.1-1.6-.1-6.4-.1-8.5V66h5.8v42.5h-4.8z"/></g><g id="XMLID_241_"><path id="XMLID_40_" d="M67.5 152.9v9.6h-5.9v-9.6H53v-5.7h8.7v-9.6h5.9v9.6h8.7v5.7h-8.8z"/></g><g id="XMLID_237_"><path id="XMLID_238_" class="st0" d="M109.5 153.9h-5v17.3h-5.9v-42.5h11.2c6 0 12 3.6 12 12.4 0 8.7-5.9 12.8-12.3 12.8zm-.1-19.3h-4.8v13.6h5c3.5 0 6.1-2.2 6.1-6.9-.1-4.8-2.9-6.7-6.3-6.7z"/></g><g id="XMLID_233_"><path id="XMLID_234_" class="st0" d="M147.1 171.2l-2.5-11.2h-9.2l-2.4 11.2h-6.3l10.4-42.5h6.1l10.4 42.5h-6.5zm-5.3-24c-.6-2.8-1.5-7.7-1.8-9.3-.3 1.6-1.2 6.4-1.8 9.3l-1.6 7.2h6.8l-1.6-7.2z"/></g><g id="XMLID_229_"><path id="XMLID_230_" class="st0" d="M181.5 171.2l-6.4-18.5h-4.9v18.5h-5.9v-42.5h12c6.2 0 11.8 3.3 11.8 11.8 0 6.1-2.7 9.6-6.7 11.2l6.8 19.5h-6.7zm-5.8-36.7h-5.5V147h5.5c3.8 0 6.2-1.9 6.2-6.3s-2.6-6.2-6.2-6.2z"/></g><g id="XMLID_222_"><path id="XMLID_22_" class="st0" d="M210.6 134.6v36.6h-5.9v-36.6h-7.8v-5.8h21.6v5.8h-7.9z"/><path id="XMLID_21_" class="st0" d="M248.5 171.2l-10.2-22.7c-.9-1.8-2.4-5.8-3-7 .1 1.6.1 6.4.1 8.5v21.2h-5.8v-42.5h5.9l9.2 20.2c.8 1.8 2.4 5.8 3 7-.1-1.6-.1-6.4-.1-8.5v-18.7h5.8v42.5h-4.9z"/><path id="XMLID_20_" class="st0" d="M266.7 171.2v-42.5h20v5.8h-14v11.3h9.2v5.7h-9.2v13.9h14.8v5.8h-20.8z"/><path id="XMLID_223_" class="st0" d="M315.8 171.2l-6.4-18.5h-4.9v18.5h-5.9v-42.5h12c6.2 0 11.8 3.3 11.8 11.8 0 6.1-2.7 9.6-6.7 11.2l6.8 19.5h-6.7zm-5.8-36.7h-5.5V147h5.5c3.8 0 6.2-1.9 6.2-6.3s-2.6-6.2-6.2-6.2z"/></g><g id="XMLID_220_"><path id="XMLID_17_" class="st0" d="M342.9 171.9c-5.3 0-8.8-2.8-11.2-6.9l4.7-3.8c2.3 3.6 4.3 4.7 6.9 4.7 3.2 0 5.1-1.9 5.1-5.4 0-3.3-1.4-5.2-7.1-8.9-4.8-3.2-8.6-6.3-8.6-12.9 0-6.2 4.1-10.6 10.7-10.6 4.9 0 7.8 2.1 10.3 5.8l-4.4 3.9c-2.1-2.7-3.5-3.7-6.1-3.7-2.9 0-4.4 1.8-4.4 4.5 0 3.2 1.5 4.9 6.2 7.9 5.3 3.4 9.5 6.7 9.5 13.8 0 6.7-4 11.6-11.6 11.6z"/></g><g id="XMLID_216_"><path id="XMLID_217_" class="st0" d="M64 234l-2.5-11.2h-9.2L49.9 234h-6.3L54 191.5h6.1L70.5 234H64zm-5.2-24.1c-.6-2.8-1.5-7.7-1.8-9.3-.3 1.6-1.2 6.4-1.8 9.3l-1.6 7.2h6.8l-1.6-7.2z"/></g><g id="XMLID_209_"><path id="XMLID_211_" class="st0" d="M89 234H78.7v-42.5H89c9.4 0 13.5 8.4 13.5 21 0 12.7-4.5 21.5-13.5 21.5zm-.1-36.7h-4.2v30.8H89c5.7 0 7.3-8.1 7.3-15.6.1-7.4-1.5-15.2-7.4-15.2z"/></g><g id="XMLID_203_"><path id="XMLID_12_" class="st0" d="M123 234h-4.4l-10.9-42.5h6.5l4.9 21.3c.5 2.2 1.6 7.5 1.9 9 .3-1.5 1.4-6.7 1.9-9l4.9-21.3h6.3L123 234z"/><path id="XMLID_11_" class="st0" d="M142.1 234v-42.5h20v5.8h-14v11.3h9.2v5.7h-9.2v13.9h14.8v5.8h-20.8z"/></g><g id="XMLID_196_"><path id="XMLID_198_" class="st0" d="M188.8 234l-6.4-18.5h-4.9V234h-5.9v-42.5h11.9c6.2 0 11.8 3.3 11.8 11.8 0 6.1-2.7 9.6-6.7 11.2l6.8 19.5h-6.6zm-5.8-36.7h-5.5v12.5h5.5c3.8 0 6.2-1.9 6.2-6.3s-2.6-6.2-6.2-6.2z"/></g><g id="XMLID_185_"><path id="XMLID_8_" class="st0" d="M215.5 197.3V234h-5.9v-36.6h-7.8v-5.8h21.6v5.8h-7.9z"/><path id="XMLID_7_" class="st0" d="M232.3 234v-42.5h5.9V234h-5.9z"/><path id="XMLID_6_" class="st0" d="M258.1 234.6c-5.3 0-8.8-2.8-11.2-6.9l4.7-3.8c2.3 3.6 4.3 4.7 6.9 4.7 3.2 0 5.1-1.9 5.1-5.4 0-3.3-1.4-5.2-7.1-8.9-4.8-3.2-8.6-6.3-8.6-12.9 0-6.2 4.1-10.6 10.7-10.6 4.9 0 7.8 2.1 10.3 5.8l-4.4 3.9c-2.1-2.7-3.5-3.7-6.1-3.7-2.9 0-4.4 1.8-4.4 4.5 0 3.2 1.5 4.9 6.2 7.9 5.3 3.4 9.5 6.7 9.5 13.8 0 6.8-4.1 11.6-11.6 11.6z"/><path id="XMLID_5_" class="st0" d="M279.1 234v-42.5h5.9V234h-5.9z"/><path id="XMLID_4_" class="st0" d="M315.2 234l-10.3-22.7c-.9-1.8-2.4-5.8-3-7 .1 1.6.1 6.4.1 8.5V234h-5.8v-42.5h5.9l9.2 20.2c.9 1.8 2.4 5.8 3 7-.1-1.6-.1-6.4-.1-8.5v-18.7h5.8V234h-4.8z"/></g><g id="XMLID_182_"><path id="XMLID_3_" class="st0" d="M342.3 234.6c-9 0-12.8-9.8-12.8-21.9 0-12.8 4.1-21.9 13-21.9 6.9 0 10.1 4 11.3 10.4l-5.9 1.6c-1-4.4-2.6-5.9-5.6-5.9-4.7 0-6.7 6.8-6.7 15.9 0 7.2 1.5 15.9 7.1 15.9 4 0 5.5-2.4 5.5-7.6v-3h-4.7v-5.8h10.8v9.4c-.1 7-3.5 12.9-12 12.9z"/></g><path id="XMLID_59_" class="st1" d="M200 129.1c-11.6 0-20.9 9.4-20.9 20.9s9.4 20.9 20.9 20.9 20.9-9.4 20.9-20.9-9.3-20.9-20.9-20.9zm12 22.9h-9v10h-5v-10h-9v-6h9v-10h5v10h9v6z"/></svg>